<svg width="106" height="106" viewBox="0 0 106 106" fill="none" xmlns="http://www.w3.org/2000/svg">
<rect width="106" height="106" rx="15" fill="white"/>
<path d="M87.9956 46.8143C87.9784 46.3925 87.8369 45.9853 87.5891 45.6443C87.3412 45.3034 86.998 45.0441 86.6032 44.8993L45.3903 32.0769C44.6217 31.8386 44.2703 32.249 44.6085 32.9859L52.2731 49.8986C52.6113 50.6399 53.4853 51.518 54.2145 51.8533L64.7296 56.6893C65.4587 57.0246 65.4763 57.6115 64.7648 57.9909L19.9019 81.9591C19.1947 82.3386 19.1025 82.2062 19.6998 81.6635L36.9352 66.0701C37.5859 65.4108 37.9734 64.5349 38.0245 63.6079L38.042 16.3423C38.0248 15.9193 37.8828 15.511 37.6341 15.1692C37.3854 14.8275 37.0413 14.5677 36.6453 14.4229L19.3967 9.06179C18.6281 8.82352 18 9.29564 18 10.1119V81.8135C18 82.6298 18.5359 83.68 19.1947 84.1477L36.72 96.6216C37.3788 97.0893 38.4769 97.129 39.1665 96.7098L86.7438 67.9277C87.11 67.6766 87.4137 67.3442 87.6315 66.9563C87.8494 66.5684 87.9754 66.1353 88 65.6906V46.8143H87.9956Z" fill="#04912B"/>
</svg>
