<svg width="377" height="46" viewBox="0 0 377 46" fill="none" xmlns="http://www.w3.org/2000/svg">
<path d="M37.6984 16.4996H29.8872C29.6644 15.2186 29.2536 14.0839 28.6549 13.0953C28.0562 12.0928 27.3113 11.2434 26.4202 10.5472C25.529 9.85104 24.5126 9.3289 23.3709 8.98081C22.243 8.61879 21.0247 8.43779 19.7159 8.43779C17.3906 8.43779 15.3299 9.02258 13.5338 10.1922C11.7376 11.3478 10.3313 13.0465 9.31486 15.2883C8.29843 17.5161 7.79021 20.2381 7.79021 23.4545C7.79021 26.7266 8.29843 29.4835 9.31486 31.7252C10.3452 33.953 11.7515 35.6378 13.5338 36.7795C15.3299 37.9074 17.3837 38.4713 19.695 38.4713C20.976 38.4713 22.1734 38.3042 23.2873 37.97C24.4151 37.6219 25.4246 37.1137 26.3157 36.4454C27.2208 35.777 27.9796 34.9555 28.5923 33.9809C29.2188 33.0062 29.6505 31.8923 29.8872 30.6392L37.6984 30.6809C37.406 32.7138 36.7725 34.6214 35.7978 36.4036C34.8371 38.1858 33.577 39.7592 32.0175 41.1237C30.458 42.4743 28.634 43.5325 26.5455 44.2983C24.4569 45.0502 22.1386 45.4262 19.5906 45.4262C15.8312 45.4262 12.4755 44.5559 9.52372 42.8155C6.57189 41.075 4.24663 38.5618 2.54793 35.2758C0.849236 31.9898 -0.000111129 28.0494 -0.000111129 23.4545C-0.000111129 18.8458 0.856198 14.9054 2.56882 11.6333C4.28143 8.34728 6.61366 5.83405 9.56549 4.09358C12.5173 2.35311 15.859 1.48288 19.5906 1.48288C21.9715 1.48288 24.1854 1.81705 26.2322 2.48539C28.279 3.15373 30.103 4.13535 31.7042 5.43026C33.3054 6.71124 34.6212 8.28462 35.6516 10.1504C36.6959 12.0023 37.3781 14.1187 37.6984 16.4996ZM42.9897 44.8414V12.7611H50.3206V18.1078H50.6548C51.2396 16.256 52.2421 14.8288 53.6623 13.8263C55.0964 12.8098 56.7325 12.3016 58.5704 12.3016C58.9881 12.3016 59.4546 12.3225 59.9697 12.3643C60.4988 12.3921 60.9374 12.4409 61.2855 12.5105V19.4654C60.9653 19.354 60.4571 19.2565 59.7609 19.173C59.0786 19.0755 58.4172 19.0268 57.7767 19.0268C56.3983 19.0268 55.1591 19.3261 54.0591 19.9249C52.9731 20.5097 52.1167 21.3242 51.4902 22.3685C50.8636 23.4128 50.5503 24.6172 50.5503 25.9817V44.8414H42.9897ZM77.7193 45.4679C74.503 45.4679 71.7252 44.7996 69.386 43.4629C67.0607 42.1123 65.2715 40.2048 64.0184 37.7403C62.7653 35.2618 62.1387 32.3448 62.1387 28.9892C62.1387 25.6893 62.7653 22.7931 64.0184 20.3008C65.2855 17.7945 67.0538 15.8452 69.3233 14.4528C71.5929 13.0465 74.2593 12.3434 77.3225 12.3434C79.2997 12.3434 81.1655 12.6636 82.9199 13.3041C84.6882 13.9307 86.2476 14.9054 87.5982 16.2281C88.9628 17.5509 90.0349 19.2356 90.8146 21.2824C91.5943 23.3153 91.9842 25.738 91.9842 28.5506V30.8689H65.6892V25.7728H84.7369C84.723 24.3248 84.4097 23.0368 83.7971 21.909C83.1844 20.7672 82.3281 19.8692 81.2281 19.2147C80.1421 18.5603 78.875 18.2331 77.427 18.2331C75.8814 18.2331 74.5239 18.6091 73.3543 19.3609C72.1847 20.0989 71.2727 21.0736 70.6182 22.2849C69.9778 23.4824 69.6505 24.7982 69.6366 26.2323V30.6809C69.6366 32.5467 69.9778 34.1479 70.66 35.4846C71.3423 36.8074 72.2961 37.8238 73.5213 38.5339C74.7466 39.2301 76.1808 39.5782 77.8238 39.5782C78.9238 39.5782 79.9193 39.425 80.8104 39.1187C81.7015 38.7985 82.4743 38.332 83.1287 37.7194C83.7831 37.1067 84.2774 36.3479 84.6116 35.4429L91.6709 36.2365C91.2254 38.1023 90.376 39.7314 89.1229 41.1237C87.8837 42.5022 86.2964 43.5743 84.361 44.3401C82.4256 45.092 80.2117 45.4679 77.7193 45.4679ZM106.142 45.4888C104.109 45.4888 102.278 45.1268 100.649 44.4028C99.0334 43.6648 97.7525 42.5788 96.8057 41.1446C95.8728 39.7105 95.4063 37.9422 95.4063 35.8397C95.4063 34.0296 95.7405 32.5328 96.4088 31.3493C97.0772 30.1658 97.9892 29.2189 99.1448 28.5088C100.301 27.7987 101.602 27.2627 103.05 26.9006C104.512 26.5247 106.023 26.2532 107.583 26.0861C109.462 25.8912 110.987 25.7171 112.157 25.564C113.326 25.3969 114.176 25.1463 114.705 24.8121C115.248 24.464 115.519 23.9279 115.519 23.2039V23.0786C115.519 21.5052 115.053 20.2869 114.12 19.4236C113.187 18.5603 111.843 18.1287 110.089 18.1287C108.237 18.1287 106.768 18.5325 105.682 19.3401C104.61 20.1476 103.886 21.1014 103.51 22.2014L96.4506 21.1989C97.0075 19.2496 97.9265 17.6205 99.2075 16.3117C100.488 14.9889 102.055 14.0003 103.907 13.3459C105.759 12.6776 107.805 12.3434 110.047 12.3434C111.593 12.3434 113.131 12.5244 114.663 12.8864C116.194 13.2484 117.594 13.8472 118.861 14.6826C120.128 15.5041 121.144 16.6249 121.91 18.0452C122.69 19.4654 123.08 21.2407 123.08 23.371V44.8414H115.812V40.4345H115.561C115.101 41.3256 114.454 42.1611 113.619 42.9408C112.797 43.7066 111.76 44.3262 110.507 44.7996C109.267 45.2591 107.812 45.4888 106.142 45.4888ZM108.105 39.9333C109.622 39.9333 110.938 39.6339 112.052 39.0352C113.166 38.4225 114.022 37.615 114.621 36.6124C115.234 35.6099 115.54 34.5169 115.54 33.3334V29.5531C115.303 29.748 114.9 29.9291 114.329 30.0961C113.772 30.2632 113.145 30.4094 112.449 30.5347C111.753 30.6601 111.064 30.7714 110.381 30.8689C109.699 30.9664 109.107 31.0499 108.606 31.1195C107.478 31.2727 106.469 31.5233 105.578 31.8714C104.686 32.2195 103.983 32.7068 103.468 33.3334C102.953 33.9461 102.695 34.7397 102.695 35.7144C102.695 37.1067 103.204 38.158 104.22 38.8681C105.236 39.5782 106.531 39.9333 108.105 39.9333ZM145.231 12.7611V18.6091H126.789V12.7611H145.231ZM131.342 5.0752H138.903V35.1922C138.903 36.2087 139.056 36.9884 139.362 37.5314C139.682 38.0605 140.1 38.4225 140.615 38.6175C141.13 38.8124 141.701 38.9099 142.328 38.9099C142.801 38.9099 143.233 38.8751 143.623 38.8054C144.027 38.7358 144.333 38.6732 144.542 38.6175L145.816 44.5281C145.412 44.6673 144.834 44.8205 144.082 44.9876C143.344 45.1547 142.439 45.2521 141.367 45.28C139.474 45.3357 137.768 45.0502 136.25 44.4237C134.732 43.7832 133.528 42.7946 132.637 41.4579C131.76 40.1212 131.328 38.4504 131.342 36.4454V5.0752ZM163.941 45.4679C160.725 45.4679 157.947 44.7996 155.608 43.4629C153.283 42.1123 151.494 40.2048 150.24 37.7403C148.987 35.2618 148.361 32.3448 148.361 28.9892C148.361 25.6893 148.987 22.7931 150.24 20.3008C151.507 17.7945 153.276 15.8452 155.545 14.4528C157.815 13.0465 160.481 12.3434 163.545 12.3434C165.522 12.3434 167.387 12.6636 169.142 13.3041C170.91 13.9307 172.47 14.9054 173.82 16.2281C175.185 17.5509 176.257 19.2356 177.037 21.2824C177.816 23.3153 178.206 25.738 178.206 28.5506V30.8689H151.911V25.7728H170.959C170.945 24.3248 170.632 23.0368 170.019 21.909C169.406 20.7672 168.55 19.8692 167.45 19.2147C166.364 18.5603 165.097 18.2331 163.649 18.2331C162.103 18.2331 160.746 18.6091 159.576 19.3609C158.407 20.0989 157.495 21.0736 156.84 22.2849C156.2 23.4824 155.873 24.7982 155.859 26.2323V30.6809C155.859 32.5467 156.2 34.1479 156.882 35.4846C157.564 36.8074 158.518 37.8238 159.743 38.5339C160.969 39.2301 162.403 39.5782 164.046 39.5782C165.146 39.5782 166.141 39.425 167.032 39.1187C167.924 38.7985 168.696 38.332 169.351 37.7194C170.005 37.1067 170.499 36.3479 170.834 35.4429L177.893 36.2365C177.447 38.1023 176.598 39.7314 175.345 41.1237C174.106 42.5022 172.518 43.5743 170.583 44.3401C168.648 45.092 166.434 45.4679 163.941 45.4679ZM202.871 44.8414L193.807 12.7611H201.513L207.153 35.3175H207.445L213.209 12.7611H220.833L226.597 35.1922H226.91L232.466 12.7611H240.194L231.108 44.8414H223.234L217.219 23.1621H216.781L210.766 44.8414H202.871ZM244.002 44.8414V12.7611H251.563V44.8414H244.002ZM247.803 8.20804C246.606 8.20804 245.575 7.81122 244.712 7.01756C243.849 6.20999 243.417 5.24229 243.417 4.11447C243.417 2.97272 243.849 2.00502 244.712 1.21137C245.575 0.403792 246.606 4.9011e-06 247.803 4.9011e-06C249.015 4.9011e-06 250.045 0.403792 250.894 1.21137C251.758 2.00502 252.189 2.97272 252.189 4.11447C252.189 5.24229 251.758 6.20999 250.894 7.01756C250.045 7.81122 249.015 8.20804 247.803 8.20804ZM273.886 12.7611V18.6091H255.444V12.7611H273.886ZM259.997 5.0752H267.558V35.1922C267.558 36.2087 267.711 36.9884 268.017 37.5314C268.338 38.0605 268.755 38.4225 269.27 38.6175C269.786 38.8124 270.357 38.9099 270.983 38.9099C271.457 38.9099 271.888 38.8751 272.278 38.8054C272.682 38.7358 272.988 38.6732 273.197 38.6175L274.471 44.5281C274.067 44.6673 273.489 44.8205 272.738 44.9876C272 45.1547 271.094 45.2521 270.022 45.28C268.129 45.3357 266.423 45.0502 264.905 44.4237C263.388 43.7832 262.183 42.7946 261.292 41.4579C260.415 40.1212 259.983 38.4504 259.997 36.4454V5.0752ZM286.989 26.0443V44.8414H279.428V2.06768H286.822V18.2122H287.198C287.95 16.4022 289.112 14.975 290.686 13.9307C292.273 12.8725 294.292 12.3434 296.742 12.3434C298.97 12.3434 300.913 12.8098 302.569 13.7427C304.226 14.6756 305.507 16.0401 306.412 17.8363C307.331 19.6325 307.791 21.8254 307.791 24.4153V44.8414H300.23V25.5849C300.23 23.4267 299.673 21.7489 298.559 20.5514C297.459 19.3401 295.914 18.7344 293.923 18.7344C292.586 18.7344 291.389 19.0268 290.331 19.6116C289.286 20.1824 288.465 21.0109 287.866 22.097C287.281 23.183 286.989 24.4988 286.989 26.0443ZM332.973 44.8414H324.702L339.76 2.06768H349.326L364.405 44.8414H356.135L344.71 10.8396H344.376L332.973 44.8414ZM333.244 28.0702H355.801V34.2941H333.244V28.0702ZM376.317 2.06768V44.8414H368.569V2.06768H376.317Z" fill="#E2E2E8"/>
</svg>
