<svg width="215" height="196" viewBox="0 0 215 196" fill="none" xmlns="http://www.w3.org/2000/svg">
<rect x="0.00390625" y="4.24536" width="4.24536" height="42.7568" transform="rotate(-90 0.00390625 4.24536)" fill="white"/>
<rect x="0.00390625" y="0.00012207" width="4.24536" height="42.7568" fill="white"/>
<rect x="4.24902" y="195.895" width="4.24536" height="42.7568" transform="rotate(-180 4.24902 195.895)" fill="white"/>
<rect x="0.00390625" y="195.895" width="4.24536" height="42.7568" transform="rotate(-90 0.00390625 195.895)" fill="white"/>
<rect x="208.025" y="191.65" width="4.24536" height="42.7568" transform="rotate(90 208.025 191.65)" fill="white"/>
<rect x="208.025" y="195.895" width="4.24536" height="42.7568" transform="rotate(-180 208.025 195.895)" fill="white"/>
<rect x="203.781" y="0.00012207" width="4.24536" height="42.7568" fill="white"/>
<rect x="208.026" y="0.00012207" width="4.24536" height="42.7568" transform="rotate(90 208.026 0.00012207)" fill="white"/>
<path d="M101.206 88.3106C115.239 67.7957 122.255 57.5382 132.124 57.413C132.285 57.4109 132.446 57.4109 132.606 57.413C142.475 57.5382 149.492 67.7957 163.525 88.3106C181.148 114.074 189.959 126.956 184.84 137.002C184.759 137.162 184.675 137.321 184.589 137.479C179.187 147.376 163.579 147.376 132.365 147.376C101.151 147.376 85.5441 147.376 80.1421 137.479C80.056 137.321 79.9722 137.162 79.8906 137.002C74.7715 126.956 83.583 114.074 101.206 88.3106Z" fill="url(#paint0_linear_1_88)"/>
<path d="M38.0007 105.202C47.4978 91.7921 52.2463 85.0874 58.7677 84.563C59.5146 84.5029 60.2652 84.5029 61.0121 84.563C67.5335 85.0874 72.282 91.7921 81.7792 105.202C94.2856 122.86 100.539 131.689 97.6584 138.79C97.3357 139.586 96.9405 140.35 96.4777 141.073C92.3478 147.528 81.5285 147.528 59.8899 147.528C38.2513 147.528 27.432 147.528 23.3021 141.073C22.8393 140.35 22.4441 139.586 22.1214 138.79C19.2411 131.689 25.4943 122.86 38.0007 105.202Z" fill="#1DA723"/>
<path d="M76.4169 58.527C85.1256 58.527 92.1854 51.4673 92.1854 42.7586C92.1854 34.0499 85.1256 26.9901 76.4169 26.9901C67.7082 26.9901 60.6484 34.0499 60.6484 42.7586C60.6484 51.4673 67.7082 58.527 76.4169 58.527Z" fill="#FBC313"/>
<path d="M67.1012 65.197L72.7719 59.3643C70.7466 58.9593 68.8834 58.1492 67.1822 57.015L67.1012 65.197ZM85.7334 20.3175L80.0627 26.1502C82.088 26.5553 83.9512 27.3654 85.6524 28.4995L85.7334 20.3175ZM53.9775 52.0734L62.1595 51.9924C61.0254 50.2912 60.2153 48.428 59.8103 46.4027L53.9775 52.0734ZM98.8571 33.4411L90.6751 33.5221C91.7282 35.2233 92.5383 37.0866 93.0243 39.1118L98.8571 33.4411ZM53.9775 33.4411L59.8103 39.1118C60.2153 37.0866 61.0254 35.2233 62.1595 33.5221L53.9775 33.4411ZM98.8571 52.0734L93.0243 46.4027C92.6193 48.428 91.8092 50.2912 90.6751 51.9924L98.8571 52.0734ZM67.1012 20.3175L67.1822 28.4995C68.8834 27.4464 70.7466 26.6363 72.7719 26.1502L67.1012 20.3175ZM85.7334 65.197L85.6524 57.015C83.9512 58.1492 82.088 58.9593 80.0627 59.3643L85.7334 65.197Z" fill="#FFE62E"/>
<defs>
<linearGradient id="paint0_linear_1_88" x1="159.354" y1="86.1217" x2="94.4603" y2="127.211" gradientUnits="userSpaceOnUse">
<stop offset="0.455277" stop-color="#47BD4C"/>
<stop offset="0.839763" stop-color="#1DA723"/>
</linearGradient>
</defs>
</svg>
