<svg width="401" height="366" viewBox="0 0 401 366" fill="none" xmlns="http://www.w3.org/2000/svg">
<rect y="7.91821" width="7.91819" height="79.7475" transform="rotate(-90 0 7.91821)" fill="white"/>
<rect y="0.000793457" width="7.91819" height="79.7475" fill="white"/>
<rect x="7.91818" y="365.37" width="7.91819" height="79.7475" transform="rotate(-180 7.91818 365.37)" fill="white"/>
<rect y="365.37" width="7.91819" height="79.7475" transform="rotate(-90 0 365.37)" fill="white"/>
<rect x="387.992" y="357.452" width="7.91819" height="79.7475" transform="rotate(90 387.992 357.452)" fill="white"/>
<rect x="387.992" y="365.37" width="7.91819" height="79.7475" transform="rotate(-180 387.992 365.37)" fill="white"/>
<rect x="380.073" y="0.000793457" width="7.9182" height="79.7475" fill="white"/>
<rect x="387.992" y="0.000793457" width="7.9182" height="79.7475" transform="rotate(90 387.992 0.000793457)" fill="white"/>
<path d="M215.514 125.601C229.741 104.802 236.855 94.4021 246.878 94.4021C256.901 94.4021 264.015 104.802 278.242 125.601L339.683 215.422C357.552 241.545 366.487 254.606 361.14 264.741C355.794 274.876 339.969 274.876 308.319 274.876H185.437C153.787 274.876 137.962 274.876 132.616 264.741C127.269 254.606 136.204 241.545 154.073 215.422L215.514 125.601Z" fill="url(#paint0_linear_1_996)"/>
<path d="M88.8534 170.833C99.2597 156.14 104.463 148.793 111.703 148.793C118.943 148.793 124.146 156.14 134.553 170.833L177.149 230.976C190.863 250.339 197.72 260.021 193.805 267.59C189.891 275.159 178.027 275.159 154.299 275.159H69.1073C45.3792 275.159 33.5152 275.159 29.6009 267.59C25.6866 260.021 32.5436 250.339 46.2576 230.976L88.8534 170.833Z" fill="#1DA723"/>
<path d="M142.528 109.16C158.77 109.16 171.938 95.9926 171.938 79.7497C171.938 63.5067 158.77 50.3392 142.528 50.3392C126.285 50.3392 113.117 63.5067 113.117 79.7497C113.117 95.9926 126.285 109.16 142.528 109.16Z" fill="#FBC313"/>
<path d="M125.152 121.603L135.728 110.724C131.951 109.969 128.476 108.458 125.303 106.342L125.152 121.603ZM159.903 37.8964L149.327 48.7752C153.104 49.5307 156.579 51.0416 159.752 53.157L159.903 37.8964ZM100.674 97.1256L115.935 96.9745C113.819 93.8015 112.309 90.3263 111.553 86.549L100.674 97.1256ZM184.381 62.3738L169.12 62.5248C171.084 65.6978 172.595 69.173 173.502 72.9504L184.381 62.3738ZM100.674 62.3738L111.553 72.9504C112.309 69.173 113.819 65.6978 115.935 62.5248L100.674 62.3738ZM184.381 97.1256L173.502 86.549C172.747 90.3263 171.236 93.8015 169.12 96.9745L184.381 97.1256ZM125.152 37.8964L125.303 53.157C128.476 51.1927 131.951 49.6818 135.728 48.7752L125.152 37.8964ZM159.903 121.603L159.752 106.342C156.579 108.458 153.104 109.969 149.327 110.724L159.903 121.603Z" fill="#FFE62E"/>
<defs>
<linearGradient id="paint0_linear_1_996" x1="297.215" y1="160.628" x2="176.18" y2="237.265" gradientUnits="userSpaceOnUse">
<stop offset="0.455277" stop-color="#47BD4C"/>
<stop offset="0.839763" stop-color="#1DA723"/>
</linearGradient>
</defs>
</svg>
