<svg width="1080" height="166" viewBox="0 0 1080 166" fill="none" xmlns="http://www.w3.org/2000/svg">
<rect width="1080" height="166" fill="#ADC7FF"/>
<rect x="72" y="155" width="106" height="7" rx="3.5" fill="#131313"/>
<path d="M148.833 61.8333C148.833 57.2375 145.096 53.5 140.5 53.5H98.8333V41H90.5V53.5H78V61.8333H140.5V124.333H148.833V111.833H161.333V103.5H148.833V61.8333Z" fill="#131313"/>
<path d="M90.5 70.167V103.5C90.5 108.096 94.2375 111.834 98.8333 111.834H132.167V103.5H98.8333V70.167H90.5Z" fill="#131313"/>
<path d="M711.647 42.6625C712.215 43.0336 712.682 43.5405 713.005 44.1372C713.328 44.7339 713.497 45.4017 713.497 46.0802V74.6636C713.497 75.7465 713.067 76.7851 712.301 77.5509C711.535 78.3167 710.497 78.7469 709.414 78.7469H644.08C643.143 78.7458 642.235 78.4223 641.508 77.8307C640.781 77.2392 640.279 76.4155 640.088 75.498C639.896 74.5806 640.026 73.6251 640.456 72.7921C640.885 71.9591 641.588 71.2992 642.447 70.9232L707.78 42.3399C708.401 42.0693 709.08 41.9575 709.755 42.0145C710.43 42.0715 711.08 42.2956 711.647 42.6666V42.6625ZM663.603 70.5802H705.33V52.3236L663.599 70.5802H663.603ZM713.497 121.622C713.497 121.966 713.41 122.304 713.244 122.605C713.078 122.906 712.839 123.161 712.548 123.345C712.258 123.529 711.926 123.637 711.583 123.658C711.24 123.68 710.897 123.614 710.585 123.468L641.169 90.8009C640.75 90.6027 640.411 90.2679 640.207 89.8515C640.004 89.435 639.948 88.9618 640.049 88.5094C640.15 88.0571 640.403 87.6527 640.764 87.3627C641.126 87.0727 641.575 86.9143 642.039 86.9136H711.455C711.997 86.9136 712.516 87.1287 712.899 87.5115C713.282 87.8944 713.497 88.4137 713.497 88.9552V121.622Z" fill="#131313"/>
<path d="M990.391 116.306C990.05 116.828 989.585 117.256 989.037 117.553C988.488 117.85 987.875 118.006 987.251 118.006H959.751C958.757 118.006 957.803 117.611 957.1 116.907C956.396 116.204 956.001 115.25 956.001 114.256V51.7556C956 50.894 956.295 50.0583 956.838 49.3889C957.38 48.7195 958.137 48.2574 958.98 48.0802C959.823 47.903 960.702 48.0215 961.468 48.4159C962.234 48.8103 962.841 49.4564 963.186 50.2456L990.686 112.746C990.937 113.317 991.041 113.941 990.99 114.563C990.938 115.185 990.733 115.784 990.391 116.306ZM963.501 69.5906V110.506H981.501L963.501 69.5906ZM913.501 118.006C913.081 118.006 912.668 117.9 912.3 117.699C911.932 117.497 911.62 117.206 911.394 116.852C911.168 116.499 911.034 116.094 911.006 115.675C910.977 115.256 911.055 114.837 911.231 114.456L941.231 49.4556C941.47 48.9379 941.879 48.5175 942.389 48.2639C942.9 48.0103 943.482 47.9389 944.039 48.0615C944.595 48.184 945.094 48.4932 945.451 48.9378C945.807 49.3823 946.002 49.9355 946.001 50.5056V115.506C946.001 116.169 945.738 116.805 945.269 117.273C944.8 117.742 944.164 118.006 943.501 118.006H913.501Z" fill="#131313"/>
<path d="M372.167 82.667C372.167 89.5837 377.75 95.167 384.667 95.167C391.584 95.167 397.167 89.5837 397.167 82.667C397.167 75.7503 391.584 70.167 384.667 70.167C377.75 70.167 372.167 75.7503 372.167 82.667Z" fill="#131313"/>
<path d="M368 74.3333V66H355.875C361.625 56.0417 372.375 49.3333 384.667 49.3333C400.167 49.3333 413.208 60 416.917 74.3333H425.5C421.625 55.3333 404.833 41 384.667 41C371.042 41 358.917 47.5833 351.333 57.7083V49.3333H343V74.3333H368ZM401.333 91V99.3333H413.458C407.708 109.292 396.958 116 384.667 116C369.167 116 356.125 105.333 352.417 91H343.833C347.708 110 364.5 124.333 384.667 124.333C398.292 124.333 410.417 117.75 418 107.625V116H426.333V91H401.333Z" fill="#131313"/>
</svg>
