<svg width="40" height="40" viewBox="0 0 40 40" fill="none" xmlns="http://www.w3.org/2000/svg">
<path d="M33.3333 28.2974C31.6453 28.2974 30.1227 28.8902 28.968 29.8446L13.1333 21.499C13.256 21.0459 13.3333 20.5736 13.3333 20.0916C13.3333 19.6096 13.256 19.1397 13.1333 18.6866L28.8 10.4229C30.0266 11.4674 31.6481 12.0492 33.3333 12.0496C37.0107 12.0496 40 9.34811 40 6.02482C40 2.70153 37.0107 0 33.3333 0C29.656 0 26.6667 2.70153 26.6667 6.02482C26.6667 6.50681 26.744 6.97915 26.8667 7.42981L11.2 15.6935C9.9727 14.6501 8.35167 14.0684 6.66667 14.0668C2.98933 14.0668 0 16.7683 0 20.0916C0 23.4149 2.98933 26.1164 6.66667 26.1164C8.35193 26.116 9.97343 25.5341 11.2 24.4897L27.0347 32.8353C26.918 33.266 26.8581 33.7077 26.856 34.1511C26.8565 35.3082 27.2366 36.4391 27.9483 37.401C28.6599 38.3629 29.6712 39.1125 30.8542 39.5551C32.0371 39.9976 33.3388 40.1133 34.5945 39.8875C35.8502 39.6616 37.0036 39.1044 37.9089 38.2862C38.8143 37.468 39.4309 36.4256 39.6808 35.2908C39.9307 34.156 39.8027 32.9797 39.313 31.9106C38.8233 30.8415 37.9938 29.9276 36.9295 29.2845C35.8651 28.6414 34.6137 28.2979 33.3333 28.2974Z" fill="white"/>
</svg>
