<svg width="379" height="41" viewBox="0 0 379 41" fill="none" xmlns="http://www.w3.org/2000/svg">
<path d="M17.8766 23.8425C17.8766 23.2033 17.7772 22.6351 17.5783 22.138C17.3936 21.6408 17.0598 21.1862 16.5769 20.7743C16.0939 20.3624 15.4121 19.9646 14.5314 19.5811C13.6649 19.1834 12.5569 18.7785 11.2075 18.3666C9.73021 17.9121 8.36656 17.4078 7.11655 16.8538C5.88074 16.2856 4.80118 15.6322 3.87788 14.8936C2.95458 14.1407 2.23724 13.2813 1.72587 12.3154C1.2145 11.3353 0.958819 10.206 0.958819 8.9276C0.958819 7.66339 1.22161 6.51281 1.74718 5.47587C2.28696 4.43892 3.04691 3.54403 4.02703 2.79118C5.02136 2.02413 6.19324 1.43464 7.54269 1.0227C8.89213 0.596559 10.3836 0.383489 12.0172 0.383489C14.3183 0.383489 16.2999 0.809629 17.9618 1.66191C19.638 2.51419 20.9235 3.65767 21.8184 5.09234C22.7275 6.52701 23.182 8.11083 23.182 9.8438H17.8766C17.8766 8.82107 17.6564 7.91907 17.2161 7.13781C16.7899 6.34235 16.1365 5.71734 15.2558 5.2628C14.3893 4.80825 13.2885 4.58097 11.9532 4.58097C10.689 4.58097 9.63788 4.77273 8.7998 5.15626C7.96172 5.53979 7.33672 6.05826 6.92478 6.71167C6.51285 7.36509 6.30688 8.10373 6.30688 8.9276C6.30688 9.50999 6.44182 10.0427 6.71171 10.5256C6.9816 10.9944 7.39354 11.4347 7.94752 11.8467C8.5015 12.2444 9.19753 12.6208 10.0356 12.9759C10.8737 13.3311 11.8609 13.672 12.9973 13.9987C14.716 14.51 16.2146 15.0782 17.4931 15.7032C18.7715 16.314 19.8368 17.0101 20.6891 17.7913C21.5414 18.5726 22.1806 19.4604 22.6067 20.4547C23.0329 21.4348 23.246 22.5499 23.246 23.7999C23.246 25.1067 22.9832 26.2857 22.4576 27.3369C21.932 28.3738 21.1792 29.2616 20.1991 30.0002C19.2331 30.7247 18.0684 31.2858 16.7047 31.6835C15.3553 32.067 13.8496 32.2588 12.1876 32.2588C10.6961 32.2588 9.22594 32.0599 7.77706 31.6622C6.34239 31.2645 5.03556 30.6608 3.85657 29.8511C2.67759 29.0272 1.74008 28.0045 1.04405 26.7829C0.348018 25.5471 3.58373e-06 24.1053 3.58373e-06 22.4576H5.34806C5.34806 23.4661 5.51852 24.3255 5.85943 25.0357C6.21455 25.7459 6.70461 26.3283 7.32962 26.7829C7.95462 27.2232 8.67906 27.5499 9.50293 27.763C10.341 27.9761 11.2359 28.0826 12.1876 28.0826C13.4376 28.0826 14.4817 27.905 15.3197 27.5499C16.172 27.1948 16.8112 26.6977 17.2374 26.0584C17.6635 25.4192 17.8766 24.6806 17.8766 23.8425ZM38.033 8.77845V12.5285H25.0357V8.77845H38.033ZM28.7858 3.13209H33.9208V25.4618C33.9208 26.1721 34.0202 26.719 34.2191 27.1025C34.4321 27.4718 34.7233 27.7204 35.0927 27.8482C35.462 27.9761 35.8952 28.04 36.3924 28.04C36.7475 28.04 37.0884 28.0187 37.4151 27.9761C37.7418 27.9335 38.0046 27.8908 38.2035 27.8482L38.2248 31.7687C37.7986 31.8966 37.3015 32.0102 36.7333 32.1096C36.1793 32.2091 35.5401 32.2588 34.8157 32.2588C33.6367 32.2588 32.5926 32.0528 31.6835 31.6409C30.7744 31.2147 30.0642 30.5258 29.5528 29.5741C29.0415 28.6224 28.7858 27.3582 28.7858 25.7814V3.13209ZM40.5046 20.5612V20.0712C40.5046 18.4092 40.7461 16.868 41.2291 15.4475C41.712 14.0129 42.4081 12.77 43.3172 11.7188C44.2405 10.6535 45.3626 9.8296 46.6837 9.24721C48.0189 8.65061 49.5246 8.35231 51.2008 8.35231C52.8911 8.35231 54.3968 8.65061 55.7178 9.24721C57.0531 9.8296 58.1824 10.6535 59.1057 11.7188C60.029 12.77 60.7321 14.0129 61.2151 15.4475C61.698 16.868 61.9395 18.4092 61.9395 20.0712V20.5612C61.9395 22.2232 61.698 23.7644 61.2151 25.1849C60.7321 26.6053 60.029 27.8482 59.1057 28.9136C58.1824 29.9647 57.0602 30.7886 55.7392 31.3852C54.4181 31.9676 52.9195 32.2588 51.2434 32.2588C49.553 32.2588 48.0402 31.9676 46.705 31.3852C45.3839 30.7886 44.2618 29.9647 43.3385 28.9136C42.4152 27.8482 41.712 26.6053 41.2291 25.1849C40.7461 23.7644 40.5046 22.2232 40.5046 20.5612ZM45.6396 20.0712V20.5612C45.6396 21.5982 45.7462 22.5783 45.9592 23.5016C46.1723 24.4249 46.5061 25.2346 46.9607 25.9306C47.4152 26.6266 47.9976 27.1735 48.7078 27.5712C49.4181 27.969 50.2632 28.1678 51.2434 28.1678C52.1951 28.1678 53.019 27.969 53.715 27.5712C54.4252 27.1735 55.0076 26.6266 55.4622 25.9306C55.9167 25.2346 56.2505 24.4249 56.4636 23.5016C56.6909 22.5783 56.8045 21.5982 56.8045 20.5612V20.0712C56.8045 19.0484 56.6909 18.0825 56.4636 17.1734C56.2505 16.2501 55.9096 15.4333 55.4409 14.7231C54.9863 14.0129 54.4039 13.4589 53.6937 13.0612C52.9976 12.6492 52.1667 12.4433 51.2008 12.4433C50.2348 12.4433 49.3968 12.6492 48.6865 13.0612C47.9905 13.4589 47.4152 14.0129 46.9607 14.7231C46.5061 15.4333 46.1723 16.2501 45.9592 17.1734C45.7462 18.0825 45.6396 19.0484 45.6396 20.0712ZM71.3998 13.1677V31.8326H66.2648V8.77845H71.1654L71.3998 13.1677ZM78.4524 8.6293L78.4098 13.4021C78.0973 13.3453 77.7564 13.3026 77.3871 13.2742C77.032 13.2458 76.6768 13.2316 76.3217 13.2316C75.441 13.2316 74.6669 13.3595 73.9993 13.6151C73.3316 13.8566 72.7706 14.2117 72.316 14.6805C71.8757 15.135 71.5348 15.689 71.2933 16.3424C71.0518 16.9959 70.9097 17.7274 70.8671 18.5371L69.6952 18.6223C69.6952 17.1734 69.8373 15.8311 70.1214 14.5953C70.4055 13.3595 70.8316 12.2728 71.3998 11.3353C71.9822 10.3978 72.7066 9.66624 73.5731 9.14067C74.4538 8.6151 75.4694 8.35231 76.62 8.35231C76.9325 8.35231 77.2663 8.38072 77.6215 8.43754C77.9908 8.49436 78.2678 8.55828 78.4524 8.6293ZM93.9 27.209V16.2146C93.9 15.3907 93.7509 14.6805 93.4526 14.0839C93.1543 13.4873 92.6997 13.0257 92.0889 12.6989C91.4923 12.3722 90.7395 12.2089 89.8304 12.2089C88.9923 12.2089 88.2679 12.3509 87.6571 12.635C87.0463 12.9191 86.5704 13.3026 86.2295 13.7856C85.8886 14.2686 85.7181 14.8154 85.7181 15.4262H80.6044C80.6044 14.5171 80.8246 13.6365 81.265 12.7842C81.7053 11.9319 82.3445 11.1719 83.1826 10.5043C84.0207 9.8367 85.0221 9.31113 86.1869 8.9276C87.3517 8.54408 88.6585 8.35231 90.1074 8.35231C91.8403 8.35231 93.3744 8.64351 94.7097 9.2259C96.0591 9.80829 97.1174 10.689 97.8844 11.868C98.6657 13.0328 99.0563 14.4958 99.0563 16.2572V26.5059C99.0563 27.557 99.1273 28.5016 99.2694 29.3397C99.4256 30.1636 99.6458 30.8809 99.9299 31.4917V31.8326H94.6671C94.4256 31.2787 94.2338 30.5755 94.0918 29.7232C93.9639 28.8568 93.9 28.0187 93.9 27.209ZM94.6458 17.8126L94.6884 20.9874H91.0023C90.0505 20.9874 89.2125 21.0797 88.488 21.2644C87.7636 21.4348 87.1599 21.6905 86.6769 22.0314C86.194 22.3723 85.8318 22.7843 85.5903 23.2672C85.3488 23.7502 85.2281 24.2971 85.2281 24.9079C85.2281 25.5187 85.3701 26.0797 85.6542 26.5911C85.9383 27.0883 86.3502 27.4789 86.89 27.763C87.444 28.0471 88.1116 28.1891 88.8929 28.1891C89.944 28.1891 90.8602 27.9761 91.6415 27.5499C92.4369 27.1096 93.0619 26.5769 93.5165 25.9519C93.971 25.3127 94.2125 24.709 94.2409 24.1408L95.9029 26.4207C95.7324 27.0031 95.4412 27.6281 95.0293 28.2957C94.6174 28.9633 94.0776 29.6025 93.41 30.2133C92.7565 30.8099 91.9682 31.3 91.0449 31.6835C90.1358 32.067 89.0846 32.2588 87.8914 32.2588C86.3857 32.2588 85.0434 31.9605 83.8644 31.3639C82.6854 30.7531 81.7621 29.9363 81.0945 28.9136C80.4269 27.8766 80.0931 26.7048 80.0931 25.3979C80.0931 24.1763 80.3203 23.0968 80.7749 22.1593C81.2436 21.2075 81.9255 20.4121 82.8204 19.7729C83.7295 19.1337 84.8374 18.6507 86.1443 18.324C87.4511 17.9831 88.9426 17.8126 90.6187 17.8126H94.6458ZM119.191 8.77845H123.858V31.1934C123.858 33.2673 123.417 35.0287 122.537 36.4776C121.656 37.9264 120.427 39.0273 118.851 39.7802C117.274 40.5472 115.449 40.9307 113.375 40.9307C112.494 40.9307 111.514 40.8029 110.434 40.5472C109.369 40.2915 108.332 39.8796 107.323 39.3114C106.329 38.7574 105.498 38.0259 104.831 37.1168L107.238 34.0912C108.062 35.0713 108.971 35.7886 109.966 36.2432C110.96 36.6977 112.004 36.925 113.098 36.925C114.277 36.925 115.278 36.7048 116.102 36.2645C116.94 35.8384 117.586 35.2063 118.041 34.3682C118.495 33.5301 118.723 32.5074 118.723 31.3V13.9987L119.191 8.77845ZM103.531 20.5612V20.1138C103.531 18.3666 103.744 16.7757 104.17 15.341C104.596 13.8921 105.207 12.6492 106.002 11.6123C106.798 10.5611 107.764 9.75858 108.9 9.20459C110.037 8.63641 111.322 8.35231 112.757 8.35231C114.248 8.35231 115.52 8.6222 116.571 9.16198C117.636 9.70176 118.524 10.4759 119.234 11.4844C119.944 12.4788 120.498 13.672 120.896 15.064C121.308 16.4419 121.613 17.976 121.812 19.6663V21.0939C121.628 22.7416 121.315 24.2473 120.875 25.611C120.434 26.9746 119.852 28.1536 119.128 29.148C118.403 30.1423 117.508 30.9093 116.443 31.4491C115.392 31.9889 114.149 32.2588 112.714 32.2588C111.308 32.2588 110.037 31.9676 108.9 31.3852C107.778 30.8028 106.812 29.986 106.002 28.9349C105.207 27.8837 104.596 26.6479 104.17 25.2275C103.744 23.7928 103.531 22.2374 103.531 20.5612ZM108.666 20.1138V20.5612C108.666 21.6124 108.765 22.5925 108.964 23.5016C109.177 24.4107 109.497 25.2133 109.923 25.9093C110.363 26.5911 110.917 27.1309 111.585 27.5286C112.267 27.9122 113.069 28.1039 113.993 28.1039C115.2 28.1039 116.187 27.8482 116.954 27.3369C117.735 26.8255 118.332 26.1366 118.744 25.2701C119.17 24.3894 119.468 23.4093 119.639 22.3297V18.4731C119.554 17.6351 119.376 16.8538 119.106 16.1294C118.851 15.4049 118.503 14.7728 118.062 14.233C117.622 13.6791 117.068 13.2529 116.4 12.9546C115.733 12.6421 114.944 12.4859 114.035 12.4859C113.112 12.4859 112.309 12.6847 111.627 13.0825C110.946 13.4802 110.385 14.0271 109.944 14.7231C109.518 15.4191 109.198 16.2288 108.985 17.1521C108.772 18.0754 108.666 19.0626 108.666 20.1138ZM139.348 32.2588C137.643 32.2588 136.102 31.9818 134.724 31.4278C133.361 30.8596 132.196 30.0713 131.23 29.0627C130.278 28.0542 129.547 26.8681 129.035 25.5045C128.524 24.1408 128.268 22.6706 128.268 21.0939V20.2416C128.268 18.4376 128.531 16.8041 129.057 15.341C129.582 13.8779 130.314 12.6279 131.251 11.591C132.189 10.5398 133.297 9.73727 134.575 9.18329C135.854 8.6293 137.238 8.35231 138.73 8.35231C140.378 8.35231 141.819 8.6293 143.055 9.18329C144.291 9.73727 145.314 10.5185 146.124 11.5271C146.947 12.5214 147.558 13.7075 147.956 15.0853C148.368 16.4632 148.574 17.9831 148.574 19.645V21.8397H130.761V18.1535H143.503V17.7487C143.474 16.8254 143.29 15.9589 142.949 15.1492C142.622 14.3396 142.118 13.6862 141.436 13.189C140.754 12.6918 139.845 12.4433 138.709 12.4433C137.856 12.4433 137.096 12.6279 136.429 12.9972C135.775 13.3524 135.229 13.8708 134.788 14.5527C134.348 15.2345 134.007 16.0583 133.765 17.0243C133.538 17.976 133.425 19.0484 133.425 20.2416V21.0939C133.425 22.1024 133.559 23.0399 133.829 23.9064C134.113 24.7587 134.525 25.5045 135.065 26.1437C135.605 26.7829 136.258 27.2871 137.025 27.6565C137.792 28.0116 138.666 28.1891 139.646 28.1891C140.882 28.1891 141.983 27.9406 142.949 27.4434C143.915 26.9462 144.753 26.2431 145.463 25.334L148.169 27.9548C147.672 28.6792 147.026 29.3752 146.23 30.0429C145.435 30.6963 144.462 31.2289 143.311 31.6409C142.175 32.0528 140.854 32.2588 139.348 32.2588ZM175.74 20.2629H167.665V16.0228H175.74C177.147 16.0228 178.283 15.7956 179.149 15.341C180.016 14.8865 180.648 14.2615 181.046 13.466C181.458 12.6563 181.664 11.733 181.664 10.6961C181.664 9.71596 181.458 8.79976 181.046 7.94748C180.648 7.08099 180.016 6.38496 179.149 5.85939C178.283 5.33382 177.147 5.07103 175.74 5.07103H169.306V31.8326H163.957V0.809629H175.74C178.141 0.809629 180.179 1.23577 181.855 2.08805C183.546 2.92613 184.831 4.09091 185.712 5.5824C186.593 7.05969 187.033 8.75004 187.033 10.6535C187.033 12.6563 186.593 14.3751 185.712 15.8098C184.831 17.2444 183.546 18.3453 181.855 19.1124C180.179 19.8794 178.141 20.2629 175.74 20.2629ZM201.223 32.2588C199.519 32.2588 197.978 31.9818 196.6 31.4278C195.236 30.8596 194.071 30.0713 193.105 29.0627C192.154 28.0542 191.422 26.8681 190.911 25.5045C190.399 24.1408 190.144 22.6706 190.144 21.0939V20.2416C190.144 18.4376 190.407 16.8041 190.932 15.341C191.458 13.8779 192.189 12.6279 193.127 11.591C194.064 10.5398 195.172 9.73727 196.451 9.18329C197.729 8.6293 199.114 8.35231 200.606 8.35231C202.253 8.35231 203.695 8.6293 204.931 9.18329C206.167 9.73727 207.189 10.5185 207.999 11.5271C208.823 12.5214 209.434 13.7075 209.831 15.0853C210.243 16.4632 210.449 17.9831 210.449 19.645V21.8397H192.637V18.1535H205.378V17.7487C205.35 16.8254 205.165 15.9589 204.824 15.1492C204.498 14.3396 203.993 13.6862 203.312 13.189C202.63 12.6918 201.721 12.4433 200.584 12.4433C199.732 12.4433 198.972 12.6279 198.304 12.9972C197.651 13.3524 197.104 13.8708 196.664 14.5527C196.223 15.2345 195.882 16.0583 195.641 17.0243C195.414 17.976 195.3 19.0484 195.3 20.2416V21.0939C195.3 22.1024 195.435 23.0399 195.705 23.9064C195.989 24.7587 196.401 25.5045 196.941 26.1437C197.481 26.7829 198.134 27.2871 198.901 27.6565C199.668 28.0116 200.542 28.1891 201.522 28.1891C202.758 28.1891 203.858 27.9406 204.824 27.4434C205.79 26.9462 206.628 26.2431 207.339 25.334L210.045 27.9548C209.547 28.6792 208.901 29.3752 208.106 30.0429C207.31 30.6963 206.337 31.2289 205.187 31.6409C204.05 32.0528 202.729 32.2588 201.223 32.2588ZM219.611 13.1677V31.8326H214.476V8.77845H219.377L219.611 13.1677ZM226.664 8.6293L226.621 13.4021C226.309 13.3453 225.968 13.3026 225.599 13.2742C225.244 13.2458 224.888 13.2316 224.533 13.2316C223.653 13.2316 222.878 13.3595 222.211 13.6151C221.543 13.8566 220.982 14.2117 220.528 14.6805C220.087 15.135 219.746 15.689 219.505 16.3424C219.263 16.9959 219.121 17.7274 219.079 18.5371L217.907 18.6223C217.907 17.1734 218.049 15.8311 218.333 14.5953C218.617 13.3595 219.043 12.2728 219.611 11.3353C220.194 10.3978 220.918 9.66624 221.785 9.14067C222.665 8.6151 223.681 8.35231 224.832 8.35231C225.144 8.35231 225.478 8.38072 225.833 8.43754C226.202 8.49436 226.479 8.55828 226.664 8.6293ZM235.016 13.466V31.8326H229.881V8.77845H234.718L235.016 13.466ZM234.185 19.4533L232.438 19.432C232.438 17.841 232.637 16.3709 233.035 15.0214C233.433 13.672 234.015 12.5001 234.782 11.5058C235.549 10.4972 236.501 9.72306 237.637 9.18329C238.788 8.6293 240.116 8.35231 241.622 8.35231C242.673 8.35231 243.631 8.50856 244.498 8.82107C245.379 9.11936 246.139 9.59522 246.778 10.2486C247.431 10.9021 247.928 11.7401 248.269 12.7629C248.624 13.7856 248.802 15.0214 248.802 16.4703V31.8326H243.667V16.9177C243.667 15.7956 243.497 14.9149 243.156 14.2757C242.829 13.6365 242.353 13.1819 241.728 12.912C241.117 12.6279 240.386 12.4859 239.533 12.4859C238.568 12.4859 237.744 12.6705 237.062 13.0399C236.394 13.4092 235.847 13.9134 235.421 14.5527C234.995 15.1919 234.683 15.9305 234.484 16.7686C234.285 17.6067 234.185 18.5016 234.185 19.4533ZM248.482 18.0896L246.075 18.6223C246.075 17.2302 246.266 15.9163 246.65 14.6805C247.048 13.4305 247.623 12.3367 248.376 11.3992C249.143 10.4475 250.088 9.70176 251.21 9.16198C252.332 8.6222 253.617 8.35231 255.066 8.35231C256.245 8.35231 257.296 8.51567 258.22 8.84237C259.157 9.15488 259.953 9.65204 260.606 10.3339C261.26 11.0157 261.757 11.9035 262.098 12.9972C262.438 14.0768 262.609 15.3836 262.609 16.9177V31.8326H257.453V16.8964C257.453 15.7316 257.282 14.8296 256.941 14.1904C256.615 13.5512 256.146 13.1109 255.535 12.8694C254.924 12.6137 254.193 12.4859 253.34 12.4859C252.545 12.4859 251.842 12.635 251.231 12.9333C250.634 13.2174 250.13 13.6222 249.718 14.1478C249.306 14.6592 248.994 15.2487 248.781 15.9163C248.582 16.5839 248.482 17.3084 248.482 18.0896ZM273.39 8.77845V31.8326H268.234V8.77845H273.39ZM267.893 2.72726C267.893 1.946 268.149 1.29969 268.66 0.788322C269.186 0.262749 269.91 -3.72082e-05 270.833 -3.72082e-05C271.743 -3.72082e-05 272.46 0.262749 272.985 0.788322C273.511 1.29969 273.774 1.946 273.774 2.72726C273.774 3.49431 273.511 4.13352 272.985 4.64489C272.46 5.15626 271.743 5.41194 270.833 5.41194C269.91 5.41194 269.186 5.15626 268.66 4.64489C268.149 4.13352 267.893 3.49431 267.893 2.72726ZM291.949 25.5897C291.949 25.0783 291.821 24.6167 291.565 24.2047C291.31 23.7786 290.819 23.3951 290.095 23.0542C289.385 22.7132 288.334 22.4007 286.942 22.1166C285.72 21.8468 284.598 21.5271 283.575 21.1578C282.567 20.7743 281.7 20.3126 280.976 19.7729C280.251 19.2331 279.69 18.5939 279.292 17.8552C278.895 17.1166 278.696 16.2643 278.696 15.2984C278.696 14.3609 278.902 13.4731 279.314 12.635C279.726 11.7969 280.315 11.0583 281.082 10.4191C281.849 9.77988 282.78 9.27562 283.873 8.90629C284.981 8.53697 286.217 8.35231 287.581 8.35231C289.513 8.35231 291.167 8.67902 292.545 9.33243C293.937 9.97165 295.003 10.8452 295.741 11.9532C296.48 13.047 296.849 14.2828 296.849 15.6606H291.714C291.714 15.0498 291.558 14.4816 291.246 13.9561C290.947 13.4163 290.493 12.983 289.882 12.6563C289.271 12.3154 288.504 12.145 287.581 12.145C286.7 12.145 285.969 12.287 285.386 12.5711C284.818 12.841 284.392 13.1961 284.108 13.6365C283.838 14.0768 283.703 14.5598 283.703 15.0853C283.703 15.4689 283.774 15.8169 283.916 16.1294C284.072 16.4277 284.328 16.7047 284.683 16.9603C285.038 17.2018 285.521 17.4291 286.132 17.6422C286.757 17.8552 287.538 18.0612 288.476 18.2601C290.237 18.6294 291.75 19.1053 293.014 19.6876C294.292 20.2558 295.273 20.9945 295.954 21.9036C296.636 22.7985 296.977 23.9348 296.977 25.3127C296.977 26.3354 296.757 27.2729 296.317 28.1252C295.891 28.9633 295.266 29.6948 294.442 30.3198C293.618 30.9306 292.631 31.4065 291.48 31.7474C290.344 32.0883 289.065 32.2588 287.645 32.2588C285.557 32.2588 283.788 31.8895 282.339 31.1508C280.89 30.398 279.79 29.4392 279.037 28.2744C278.298 27.0954 277.929 25.8738 277.929 24.6096H282.893C282.95 25.5613 283.213 26.3212 283.682 26.8894C284.165 27.4434 284.761 27.8482 285.471 28.1039C286.196 28.3454 286.942 28.4661 287.709 28.4661C288.632 28.4661 289.406 28.3454 290.031 28.1039C290.656 27.8482 291.132 27.5073 291.459 27.0812C291.785 26.6408 291.949 26.1437 291.949 25.5897ZM314.406 25.5897C314.406 25.0783 314.278 24.6167 314.023 24.2047C313.767 23.7786 313.277 23.3951 312.553 23.0542C311.842 22.7132 310.791 22.4007 309.399 22.1166C308.178 21.8468 307.055 21.5271 306.033 21.1578C305.024 20.7743 304.158 20.3126 303.433 19.7729C302.709 19.2331 302.148 18.5939 301.75 17.8552C301.352 17.1166 301.153 16.2643 301.153 15.2984C301.153 14.3609 301.359 13.4731 301.771 12.635C302.183 11.7969 302.773 11.0583 303.54 10.4191C304.307 9.77988 305.237 9.27562 306.331 8.90629C307.439 8.53697 308.675 8.35231 310.038 8.35231C311.97 8.35231 313.625 8.67902 315.003 9.33243C316.395 9.97165 317.46 10.8452 318.199 11.9532C318.938 13.047 319.307 14.2828 319.307 15.6606H314.172C314.172 15.0498 314.016 14.4816 313.703 13.9561C313.405 13.4163 312.95 12.983 312.34 12.6563C311.729 12.3154 310.962 12.145 310.038 12.145C309.158 12.145 308.426 12.287 307.844 12.5711C307.276 12.841 306.849 13.1961 306.565 13.6365C306.295 14.0768 306.16 14.5598 306.16 15.0853C306.16 15.4689 306.232 15.8169 306.374 16.1294C306.53 16.4277 306.785 16.7047 307.141 16.9603C307.496 17.2018 307.979 17.4291 308.589 17.6422C309.214 17.8552 309.996 18.0612 310.933 18.2601C312.695 18.6294 314.207 19.1053 315.472 19.6876C316.75 20.2558 317.73 20.9945 318.412 21.9036C319.094 22.7985 319.435 23.9348 319.435 25.3127C319.435 26.3354 319.215 27.2729 318.774 28.1252C318.348 28.9633 317.723 29.6948 316.899 30.3198C316.075 30.9306 315.088 31.4065 313.938 31.7474C312.801 32.0883 311.523 32.2588 310.102 32.2588C308.014 32.2588 306.246 31.8895 304.797 31.1508C303.348 30.398 302.247 29.4392 301.494 28.2744C300.756 27.0954 300.386 25.8738 300.386 24.6096H305.351C305.408 25.5613 305.67 26.3212 306.139 26.8894C306.622 27.4434 307.219 27.8482 307.929 28.1039C308.653 28.3454 309.399 28.4661 310.166 28.4661C311.09 28.4661 311.864 28.3454 312.489 28.1039C313.114 27.8482 313.59 27.5073 313.916 27.0812C314.243 26.6408 314.406 26.1437 314.406 25.5897ZM329.428 8.77845V31.8326H324.271V8.77845H329.428ZM323.931 2.72726C323.931 1.946 324.186 1.29969 324.698 0.788322C325.223 0.262749 325.948 -3.72082e-05 326.871 -3.72082e-05C327.78 -3.72082e-05 328.497 0.262749 329.023 0.788322C329.548 1.29969 329.811 1.946 329.811 2.72726C329.811 3.49431 329.548 4.13352 329.023 4.64489C328.497 5.15626 327.78 5.41194 326.871 5.41194C325.948 5.41194 325.223 5.15626 324.698 4.64489C324.186 4.13352 323.931 3.49431 323.931 2.72726ZM334.073 20.5612V20.0712C334.073 18.4092 334.314 16.868 334.797 15.4475C335.28 14.0129 335.976 12.77 336.885 11.7188C337.809 10.6535 338.931 9.8296 340.252 9.24721C341.587 8.65061 343.093 8.35231 344.769 8.35231C346.459 8.35231 347.965 8.65061 349.286 9.24721C350.621 9.8296 351.75 10.6535 352.674 11.7188C353.597 12.77 354.3 14.0129 354.783 15.4475C355.266 16.868 355.508 18.4092 355.508 20.0712V20.5612C355.508 22.2232 355.266 23.7644 354.783 25.1849C354.3 26.6053 353.597 27.8482 352.674 28.9136C351.75 29.9647 350.628 30.7886 349.307 31.3852C347.986 31.9676 346.488 32.2588 344.811 32.2588C343.121 32.2588 341.608 31.9676 340.273 31.3852C338.952 30.7886 337.83 29.9647 336.907 28.9136C335.983 27.8482 335.28 26.6053 334.797 25.1849C334.314 23.7644 334.073 22.2232 334.073 20.5612ZM339.208 20.0712V20.5612C339.208 21.5982 339.314 22.5783 339.527 23.5016C339.74 24.4249 340.074 25.2346 340.529 25.9306C340.983 26.6266 341.566 27.1735 342.276 27.5712C342.986 27.969 343.831 28.1678 344.811 28.1678C345.763 28.1678 346.587 27.969 347.283 27.5712C347.993 27.1735 348.576 26.6266 349.03 25.9306C349.485 25.2346 349.819 24.4249 350.032 23.5016C350.259 22.5783 350.373 21.5982 350.373 20.5612V20.0712C350.373 19.0484 350.259 18.0825 350.032 17.1734C349.819 16.2501 349.478 15.4333 349.009 14.7231C348.554 14.0129 347.972 13.4589 347.262 13.0612C346.566 12.6492 345.735 12.4433 344.769 12.4433C343.803 12.4433 342.965 12.6492 342.255 13.0612C341.559 13.4589 340.983 14.0129 340.529 14.7231C340.074 15.4333 339.74 16.2501 339.527 17.1734C339.314 18.0825 339.208 19.0484 339.208 20.0712ZM364.904 13.7004V31.8326H359.769V8.77845H364.606L364.904 13.7004ZM363.988 19.4533L362.326 19.432C362.34 17.7984 362.567 16.2998 363.008 14.9362C363.462 13.5725 364.087 12.4006 364.883 11.4205C365.692 10.4404 366.658 9.68755 367.78 9.16198C368.903 8.6222 370.153 8.35231 371.53 8.35231C372.638 8.35231 373.64 8.50856 374.535 8.82107C375.444 9.11936 376.218 9.60943 376.857 10.2913C377.511 10.9731 378.008 11.8609 378.349 12.9546C378.69 14.0342 378.86 15.3623 378.86 16.939V31.8326H373.704V16.9177C373.704 15.8098 373.54 14.9362 373.214 14.297C372.901 13.6436 372.439 13.1819 371.829 12.912C371.232 12.6279 370.486 12.4859 369.591 12.4859C368.711 12.4859 367.922 12.6705 367.226 13.0399C366.53 13.4092 365.941 13.9134 365.458 14.5527C364.989 15.1919 364.627 15.9305 364.371 16.7686C364.116 17.6067 363.988 18.5016 363.988 19.4533Z" fill="#FF3939"/>
</svg>
