<svg width="847" height="310" viewBox="0 0 847 310" fill="none" xmlns="http://www.w3.org/2000/svg">
<path d="M272.296 32.6583H264.485C264.262 31.3773 263.851 30.2425 263.253 29.2539C262.654 28.2514 261.909 27.402 261.018 26.7059C260.127 26.0097 259.11 25.4875 257.969 25.1394C256.841 24.7774 255.622 24.5964 254.314 24.5964C251.988 24.5964 249.928 25.1812 248.131 26.3508C246.335 27.5065 244.929 29.2052 243.913 31.4469C242.896 33.6747 242.388 36.3968 242.388 39.6132C242.388 42.8852 242.896 45.6421 243.913 47.8838C244.943 50.1116 246.349 51.7964 248.131 52.9382C249.928 54.066 251.981 54.6299 254.293 54.6299C255.574 54.6299 256.771 54.4628 257.885 54.1286C259.013 53.7805 260.022 53.2723 260.913 52.604C261.818 51.9357 262.577 51.1142 263.19 50.1395C263.816 49.1648 264.248 48.0509 264.485 46.7978L272.296 46.8396C272.004 48.8724 271.37 50.78 270.395 52.5622C269.435 54.3445 268.175 55.9178 266.615 57.2824C265.056 58.633 263.232 59.6912 261.143 60.457C259.055 61.2089 256.736 61.5848 254.188 61.5848C250.429 61.5848 247.073 60.7146 244.121 58.9741C241.17 57.2336 238.844 54.7204 237.146 51.4344C235.447 48.1484 234.598 44.208 234.598 39.6132C234.598 35.0044 235.454 31.064 237.166 27.7919C238.879 24.5059 241.211 21.9927 244.163 20.2522C247.115 18.5117 250.457 17.6415 254.188 17.6415C256.569 17.6415 258.783 17.9757 260.83 18.644C262.877 19.3124 264.701 20.294 266.302 21.5889C267.903 22.8699 269.219 24.4433 270.249 26.309C271.294 28.1609 271.976 30.2773 272.296 32.6583ZM277.587 61V28.9197H284.918V34.2664H285.252C285.837 32.4146 286.84 30.9874 288.26 29.9849C289.694 28.9685 291.33 28.4602 293.168 28.4602C293.586 28.4602 294.052 28.4811 294.567 28.5229C295.096 28.5508 295.535 28.5995 295.883 28.6691V35.624C295.563 35.5126 295.055 35.4151 294.359 35.3316C293.676 35.2341 293.015 35.1854 292.374 35.1854C290.996 35.1854 289.757 35.4848 288.657 36.0835C287.571 36.6683 286.714 37.4828 286.088 38.5271C285.461 39.5714 285.148 40.7758 285.148 42.1403V61H277.587ZM312.317 61.6266C309.101 61.6266 306.323 60.9582 303.984 59.6216C301.658 58.2709 299.869 56.3634 298.616 53.8989C297.363 51.4205 296.736 48.5035 296.736 45.1478C296.736 41.8479 297.363 38.9518 298.616 36.4594C299.883 33.9532 301.651 32.0038 303.921 30.6115C306.191 29.2052 308.857 28.502 311.92 28.502C313.897 28.502 315.763 28.8223 317.518 29.4628C319.286 30.0893 320.845 31.064 322.196 32.3867C323.56 33.7095 324.633 35.3943 325.412 37.4411C326.192 39.4739 326.582 41.8966 326.582 44.7092V47.0275H300.287V41.9315H319.335C319.321 40.4834 319.007 39.1954 318.395 38.0676C317.782 36.9259 316.926 36.0278 315.826 35.3734C314.74 34.719 313.473 34.3918 312.025 34.3918C310.479 34.3918 309.122 34.7677 307.952 35.5196C306.782 36.2575 305.87 37.2322 305.216 38.4436C304.575 39.641 304.248 40.9568 304.234 42.3909V46.8396C304.234 48.7053 304.575 50.3066 305.258 51.6433C305.94 52.966 306.894 53.9824 308.119 54.6926C309.344 55.3887 310.778 55.7368 312.421 55.7368C313.521 55.7368 314.517 55.5837 315.408 55.2773C316.299 54.9571 317.072 54.4907 317.726 53.878C318.381 53.2654 318.875 52.5065 319.209 51.6015L326.269 52.3951C325.823 54.2609 324.974 55.89 323.721 57.2824C322.481 58.6608 320.894 59.7329 318.959 60.4987C317.023 61.2506 314.809 61.6266 312.317 61.6266ZM340.739 61.6475C338.706 61.6475 336.875 61.2854 335.246 60.5614C333.631 59.8234 332.35 58.7374 331.403 57.3033C330.47 55.8691 330.004 54.1008 330.004 51.9983C330.004 50.1882 330.338 48.6914 331.006 47.5079C331.675 46.3244 332.587 45.3776 333.742 44.6675C334.898 43.9574 336.2 43.4213 337.648 43.0593C339.11 42.6833 340.621 42.4118 342.18 42.2447C344.06 42.0498 345.585 41.8758 346.754 41.7226C347.924 41.5555 348.773 41.3049 349.302 40.9707C349.845 40.6226 350.117 40.0866 350.117 39.3625V39.2372C350.117 37.6638 349.65 36.4455 348.717 35.5822C347.785 34.719 346.441 34.2873 344.687 34.2873C342.835 34.2873 341.366 34.6911 340.28 35.4987C339.208 36.3063 338.484 37.26 338.108 38.36L331.048 37.3575C331.605 35.4082 332.524 33.7791 333.805 32.4703C335.086 31.1475 336.653 30.1589 338.504 29.5045C340.356 28.8362 342.403 28.502 344.645 28.502C346.19 28.502 347.729 28.683 349.26 29.045C350.792 29.4071 352.191 30.0058 353.458 30.8412C354.726 31.6627 355.742 32.7836 356.508 34.2038C357.288 35.624 357.677 37.3993 357.677 39.5296V61H350.409V56.5931H350.159C349.699 57.4843 349.052 58.3197 348.216 59.0994C347.395 59.8652 346.357 60.4848 345.104 60.9582C343.865 61.4177 342.41 61.6475 340.739 61.6475ZM342.702 56.0919C344.22 56.0919 345.536 55.7925 346.65 55.1938C347.764 54.5812 348.62 53.7736 349.219 52.7711C349.831 51.7686 350.138 50.6756 350.138 49.492V45.7117C349.901 45.9067 349.497 46.0877 348.926 46.2548C348.369 46.4219 347.743 46.5681 347.047 46.6934C346.35 46.8187 345.661 46.9301 344.979 47.0275C344.297 47.125 343.705 47.2085 343.204 47.2782C342.076 47.4313 341.066 47.682 340.175 48.03C339.284 48.3781 338.581 48.8655 338.066 49.492C337.551 50.1047 337.293 50.8983 337.293 51.873C337.293 53.2654 337.801 54.3166 338.818 55.0267C339.834 55.7368 341.129 56.0919 342.702 56.0919ZM379.829 28.9197V34.7677H361.387V28.9197H379.829ZM365.94 21.2338H373.5V51.3509C373.5 52.3673 373.653 53.147 373.96 53.69C374.28 54.2191 374.698 54.5812 375.213 54.7761C375.728 54.971 376.299 55.0685 376.926 55.0685C377.399 55.0685 377.831 55.0337 378.22 54.9641C378.624 54.8944 378.931 54.8318 379.139 54.7761L380.413 60.6867C380.01 60.826 379.432 60.9791 378.68 61.1462C377.942 61.3133 377.037 61.4107 375.965 61.4386C374.071 61.4943 372.366 61.2089 370.848 60.5823C369.33 59.9418 368.126 58.9532 367.235 57.6165C366.357 56.2799 365.926 54.609 365.94 52.604V21.2338ZM398.539 61.6266C395.323 61.6266 392.545 60.9582 390.206 59.6216C387.88 58.2709 386.091 56.3634 384.838 53.8989C383.585 51.4205 382.958 48.5035 382.958 45.1478C382.958 41.8479 383.585 38.9518 384.838 36.4594C386.105 33.9532 387.873 32.0038 390.143 30.6115C392.413 29.2052 395.079 28.502 398.142 28.502C400.119 28.502 401.985 28.8223 403.74 29.4628C405.508 30.0893 407.067 31.064 408.418 32.3867C409.782 33.7095 410.855 35.3943 411.634 37.4411C412.414 39.4739 412.804 41.8966 412.804 44.7092V47.0275H386.509V41.9315H405.557C405.543 40.4834 405.229 39.1954 404.617 38.0676C404.004 36.9259 403.148 36.0278 402.048 35.3734C400.962 34.719 399.695 34.3918 398.247 34.3918C396.701 34.3918 395.343 34.7677 394.174 35.5196C393.004 36.2575 392.092 37.2322 391.438 38.4436C390.797 39.641 390.47 40.9568 390.456 42.3909V46.8396C390.456 48.7053 390.797 50.3066 391.48 51.6433C392.162 52.966 393.116 53.9824 394.341 54.6926C395.566 55.3887 397 55.7368 398.643 55.7368C399.743 55.7368 400.739 55.5837 401.63 55.2773C402.521 54.9571 403.294 54.4907 403.948 53.878C404.603 53.2654 405.097 52.5065 405.431 51.6015L412.491 52.3951C412.045 54.2609 411.196 55.89 409.943 57.2824C408.703 58.6608 407.116 59.7329 405.181 60.4987C403.245 61.2506 401.031 61.6266 398.539 61.6266ZM437.469 61L428.404 28.9197H436.111L441.75 51.4762H442.043L447.807 28.9197H455.43L461.195 51.3509H461.508L467.064 28.9197H474.791L465.706 61H457.832L451.817 39.3208H451.378L445.363 61H437.469ZM478.6 61V28.9197H486.16V61H478.6ZM482.401 24.3667C481.203 24.3667 480.173 23.9698 479.31 23.1762C478.447 22.3686 478.015 21.4009 478.015 20.2731C478.015 19.1314 478.447 18.1637 479.31 17.37C480.173 16.5624 481.203 16.1586 482.401 16.1586C483.612 16.1586 484.643 16.5624 485.492 17.37C486.355 18.1637 486.787 19.1314 486.787 20.2731C486.787 21.4009 486.355 22.3686 485.492 23.1762C484.643 23.9698 483.612 24.3667 482.401 24.3667ZM508.484 28.9197V34.7677H490.042V28.9197H508.484ZM494.595 21.2338H502.156V51.3509C502.156 52.3673 502.309 53.147 502.615 53.69C502.935 54.2191 503.353 54.5812 503.868 54.7761C504.383 54.971 504.954 55.0685 505.581 55.0685C506.054 55.0685 506.486 55.0337 506.876 54.9641C507.279 54.8944 507.586 54.8318 507.795 54.7761L509.069 60.6867C508.665 60.826 508.087 60.9791 507.335 61.1462C506.597 61.3133 505.692 61.4107 504.62 61.4386C502.726 61.4943 501.021 61.2089 499.503 60.5823C497.985 59.9418 496.781 58.9532 495.89 57.6165C495.013 56.2799 494.581 54.609 494.595 52.604V21.2338ZM521.586 42.203V61H514.026V18.2263H521.419V34.3709H521.795C522.547 32.5608 523.71 31.1336 525.283 30.0893C526.871 29.0311 528.889 28.502 531.34 28.502C533.568 28.502 535.51 28.9685 537.167 29.9014C538.824 30.8342 540.105 32.1988 541.01 33.9949C541.929 35.7911 542.389 37.9841 542.389 40.5739V61H534.828V41.7435C534.828 39.5853 534.271 37.9075 533.157 36.7101C532.057 35.4987 530.512 34.893 528.52 34.893C527.184 34.893 525.986 35.1854 524.928 35.7702C523.884 36.3411 523.062 37.1695 522.464 38.2556C521.879 39.3416 521.586 40.6574 521.586 42.203ZM567.57 61H559.3L574.358 18.2263H583.924L599.003 61H590.732L579.308 26.9983H578.974L567.57 61ZM567.842 44.2289H590.398V50.4528H567.842V44.2289ZM610.915 18.2263V61H603.167V18.2263H610.915Z" fill="#E2E2E8"/>
<path d="M3.95762 138.177V135.113H25.3445V138.177H16.3776V163.629H12.9245V138.177H3.95762ZM40.7963 154.885V142.242H44.0823V163.629H40.7963V160.009H40.5735C40.0723 161.095 39.2926 162.019 38.2344 162.78C37.1762 163.532 35.8395 163.908 34.2243 163.908C32.8876 163.908 31.6995 163.615 30.6598 163.03C29.6202 162.436 28.8034 161.545 28.2093 160.357C27.6152 159.16 27.3182 157.651 27.3182 155.832V142.242H30.6042V155.609C30.6042 157.168 31.0404 158.412 31.913 159.341C32.7948 160.269 33.918 160.733 35.2825 160.733C36.0994 160.733 36.9302 160.524 37.7749 160.106C38.6289 159.689 39.3436 159.048 39.9191 158.185C40.5039 157.322 40.7963 156.222 40.7963 154.885ZM50.1009 163.629V142.242H53.2755V145.473H53.4982C53.8881 144.414 54.5936 143.556 55.6146 142.897C56.6357 142.238 57.7867 141.908 59.0677 141.908C59.3091 141.908 59.6108 141.913 59.9728 141.922C60.3348 141.931 60.6086 141.945 60.7943 141.964V145.305C60.6829 145.278 60.4276 145.236 60.0285 145.18C59.6386 145.115 59.2255 145.083 58.7893 145.083C57.7496 145.083 56.8214 145.301 56.0045 145.737C55.1969 146.164 54.5564 146.758 54.083 147.519C53.6189 148.271 53.3869 149.13 53.3869 150.095V163.629H50.1009ZM67.9754 150.764V163.629H64.6894V142.242H67.864V145.584H68.1425C68.6438 144.498 69.4049 143.625 70.426 142.966C71.4471 142.298 72.7652 141.964 74.3804 141.964C75.8284 141.964 77.0955 142.261 78.1815 142.855C79.2676 143.44 80.1123 144.331 80.7156 145.528C81.319 146.716 81.6207 148.22 81.6207 150.04V163.629H78.3347V150.262C78.3347 148.582 77.8984 147.273 77.0259 146.336C76.1533 145.389 74.9559 144.916 73.4335 144.916C72.3846 144.916 71.4471 145.143 70.6209 145.598C69.8041 146.053 69.159 146.716 68.6855 147.589C68.2121 148.462 67.9754 149.52 67.9754 150.764ZM113.802 147.032L110.85 147.867C110.664 147.375 110.391 146.897 110.029 146.433C109.676 145.96 109.193 145.57 108.581 145.264C107.968 144.957 107.183 144.804 106.227 144.804C104.919 144.804 103.828 145.106 102.955 145.709C102.092 146.303 101.66 147.06 101.66 147.979C101.66 148.796 101.957 149.441 102.552 149.914C103.146 150.388 104.074 150.782 105.336 151.098L108.511 151.877C110.423 152.342 111.848 153.052 112.785 154.008C113.723 154.955 114.192 156.175 114.192 157.67C114.192 158.895 113.839 159.99 113.134 160.956C112.437 161.921 111.463 162.682 110.21 163.239C108.956 163.796 107.499 164.075 105.838 164.075C103.656 164.075 101.851 163.601 100.421 162.654C98.9917 161.708 98.0867 160.325 97.7061 158.505L100.825 157.725C101.122 158.876 101.684 159.74 102.51 160.315C103.345 160.891 104.436 161.179 105.782 161.179C107.313 161.179 108.529 160.854 109.43 160.204C110.34 159.545 110.794 158.756 110.794 157.837C110.794 157.094 110.534 156.472 110.015 155.971C109.495 155.461 108.697 155.08 107.62 154.829L104.055 153.994C102.097 153.53 100.658 152.81 99.7389 151.836C98.8293 150.852 98.3744 149.622 98.3744 148.146C98.3744 146.939 98.7132 145.872 99.3908 144.943C100.078 144.015 101.011 143.287 102.19 142.757C103.378 142.228 104.724 141.964 106.227 141.964C108.344 141.964 110.005 142.428 111.212 143.356C112.428 144.284 113.291 145.51 113.802 147.032ZM119.138 163.629V142.242H122.424V163.629H119.138ZM120.809 138.678C120.169 138.678 119.616 138.46 119.152 138.023C118.697 137.587 118.47 137.063 118.47 136.45C118.47 135.837 118.697 135.313 119.152 134.877C119.616 134.44 120.169 134.222 120.809 134.222C121.45 134.222 121.997 134.44 122.452 134.877C122.916 135.313 123.148 135.837 123.148 136.45C123.148 137.063 122.916 137.587 122.452 138.023C121.997 138.46 121.45 138.678 120.809 138.678ZM128.443 163.629V142.242H131.617V145.584H131.896C132.341 144.442 133.061 143.556 134.054 142.925C135.047 142.284 136.24 141.964 137.632 141.964C139.043 141.964 140.218 142.284 141.155 142.925C142.102 143.556 142.84 144.442 143.369 145.584H143.592C144.139 144.479 144.961 143.602 146.056 142.952C147.152 142.293 148.465 141.964 149.997 141.964C151.909 141.964 153.473 142.562 154.689 143.76C155.905 144.948 156.513 146.8 156.513 149.315V163.629H153.227V149.315C153.227 147.737 152.795 146.61 151.932 145.932C151.069 145.254 150.052 144.916 148.883 144.916C147.379 144.916 146.214 145.37 145.388 146.28C144.562 147.181 144.149 148.322 144.149 149.705V163.629H140.807V148.981C140.807 147.765 140.412 146.786 139.623 146.043C138.834 145.292 137.818 144.916 136.574 144.916C135.72 144.916 134.922 145.143 134.179 145.598C133.446 146.053 132.852 146.684 132.397 147.491C131.951 148.29 131.729 149.213 131.729 150.262V163.629H128.443ZM162.521 171.649V142.242H165.696V145.64H166.085C166.327 145.268 166.661 144.795 167.088 144.219C167.524 143.635 168.146 143.115 168.954 142.66C169.771 142.196 170.875 141.964 172.268 141.964C174.068 141.964 175.656 142.414 177.03 143.314C178.403 144.215 179.475 145.491 180.246 147.143C181.016 148.796 181.402 150.745 181.402 152.991C181.402 155.256 181.016 157.22 180.246 158.881C179.475 160.533 178.408 161.814 177.043 162.724C175.679 163.624 174.106 164.075 172.323 164.075C170.95 164.075 169.85 163.847 169.023 163.392C168.197 162.928 167.561 162.404 167.116 161.819C166.67 161.225 166.327 160.733 166.085 160.343H165.807V171.649H162.521ZM165.751 152.936C165.751 154.551 165.988 155.976 166.461 157.21C166.935 158.436 167.626 159.396 168.536 160.092C169.446 160.779 170.56 161.123 171.878 161.123C173.252 161.123 174.398 160.761 175.317 160.037C176.245 159.303 176.941 158.32 177.405 157.085C177.879 155.841 178.116 154.458 178.116 152.936C178.116 151.432 177.884 150.077 177.419 148.87C176.965 147.654 176.273 146.693 175.345 145.988C174.426 145.273 173.27 144.916 171.878 144.916C170.541 144.916 169.418 145.254 168.508 145.932C167.599 146.6 166.912 147.538 166.448 148.745C165.983 149.942 165.751 151.339 165.751 152.936ZM189.7 135.113V163.629H186.414V135.113H189.7ZM204.686 164.075C202.625 164.075 200.847 163.62 199.353 162.71C197.868 161.791 196.721 160.51 195.914 158.867C195.115 157.215 194.716 155.293 194.716 153.103C194.716 150.912 195.115 148.981 195.914 147.31C196.721 145.63 197.844 144.322 199.283 143.384C200.731 142.437 202.421 141.964 204.351 141.964C205.465 141.964 206.565 142.149 207.651 142.521C208.737 142.892 209.726 143.495 210.617 144.331C211.508 145.157 212.218 146.252 212.747 147.617C213.276 148.981 213.541 150.661 213.541 152.657V154.05H197.055V151.209H210.199C210.199 150.002 209.958 148.926 209.475 147.979C209.002 147.032 208.324 146.285 207.442 145.737C206.57 145.189 205.54 144.916 204.351 144.916C203.043 144.916 201.91 145.24 200.954 145.89C200.007 146.531 199.278 147.366 198.768 148.397C198.257 149.427 198.002 150.532 198.002 151.71V153.604C198.002 155.219 198.281 156.588 198.838 157.712C199.404 158.825 200.188 159.675 201.191 160.26C202.193 160.835 203.358 161.123 204.686 161.123C205.549 161.123 206.329 161.002 207.025 160.761C207.73 160.51 208.338 160.139 208.849 159.647C209.359 159.146 209.754 158.524 210.032 157.781L213.207 158.672C212.873 159.749 212.311 160.696 211.522 161.513C210.733 162.32 209.758 162.951 208.598 163.406C207.438 163.852 206.134 164.075 204.686 164.075ZM237.643 164.075C235.861 164.075 234.287 163.624 232.923 162.724C231.558 161.814 230.491 160.533 229.72 158.881C228.95 157.22 228.565 155.256 228.565 152.991C228.565 150.745 228.95 148.796 229.72 147.143C230.491 145.491 231.563 144.215 232.937 143.314C234.311 142.414 235.898 141.964 237.699 141.964C239.091 141.964 240.191 142.196 240.999 142.66C241.815 143.115 242.437 143.635 242.864 144.219C243.301 144.795 243.639 145.268 243.881 145.64H244.159V135.113H247.445V163.629H244.271V160.343H243.881C243.639 160.733 243.296 161.225 242.85 161.819C242.405 162.404 241.769 162.928 240.943 163.392C240.117 163.847 239.017 164.075 237.643 164.075ZM238.089 161.123C239.407 161.123 240.521 160.779 241.43 160.092C242.34 159.396 243.031 158.436 243.505 157.21C243.978 155.976 244.215 154.551 244.215 152.936C244.215 151.339 243.983 149.942 243.519 148.745C243.055 147.538 242.368 146.6 241.458 145.932C240.548 145.254 239.425 144.916 238.089 144.916C236.696 144.916 235.536 145.273 234.608 145.988C233.689 146.693 232.997 147.654 232.533 148.87C232.078 150.077 231.851 151.432 231.851 152.936C231.851 154.458 232.083 155.841 232.547 157.085C233.02 158.32 233.717 159.303 234.635 160.037C235.564 160.761 236.715 161.123 238.089 161.123ZM262.887 164.075C260.826 164.075 259.048 163.62 257.554 162.71C256.069 161.791 254.922 160.51 254.115 158.867C253.316 157.215 252.917 155.293 252.917 153.103C252.917 150.912 253.316 148.981 254.115 147.31C254.922 145.63 256.046 144.322 257.484 143.384C258.932 142.437 260.622 141.964 262.553 141.964C263.666 141.964 264.766 142.149 265.852 142.521C266.939 142.892 267.927 143.495 268.818 144.331C269.709 145.157 270.419 146.252 270.949 147.617C271.478 148.981 271.742 150.661 271.742 152.657V154.05H255.257V151.209H268.401C268.401 150.002 268.159 148.926 267.676 147.979C267.203 147.032 266.525 146.285 265.644 145.737C264.771 145.189 263.741 144.916 262.553 144.916C261.244 144.916 260.111 145.24 259.155 145.89C258.208 146.531 257.48 147.366 256.969 148.397C256.459 149.427 256.203 150.532 256.203 151.71V153.604C256.203 155.219 256.482 156.588 257.039 157.712C257.605 158.825 258.389 159.675 259.392 160.26C260.394 160.835 261.559 161.123 262.887 161.123C263.75 161.123 264.53 161.002 265.226 160.761C265.931 160.51 266.539 160.139 267.05 159.647C267.56 159.146 267.955 158.524 268.233 157.781L271.408 158.672C271.074 159.749 270.512 160.696 269.723 161.513C268.934 162.32 267.96 162.951 266.799 163.406C265.639 163.852 264.335 164.075 262.887 164.075ZM291.89 147.032L288.938 147.867C288.752 147.375 288.479 146.897 288.117 146.433C287.764 145.96 287.281 145.57 286.668 145.264C286.056 144.957 285.271 144.804 284.315 144.804C283.007 144.804 281.916 145.106 281.043 145.709C280.18 146.303 279.748 147.06 279.748 147.979C279.748 148.796 280.045 149.441 280.639 149.914C281.234 150.388 282.162 150.782 283.424 151.098L286.599 151.877C288.511 152.342 289.936 153.052 290.873 154.008C291.811 154.955 292.28 156.175 292.28 157.67C292.28 158.895 291.927 159.99 291.222 160.956C290.525 161.921 289.551 162.682 288.298 163.239C287.044 163.796 285.587 164.075 283.925 164.075C281.744 164.075 279.939 163.601 278.509 162.654C277.08 161.708 276.175 160.325 275.794 158.505L278.913 157.725C279.21 158.876 279.772 159.74 280.598 160.315C281.433 160.891 282.524 161.179 283.87 161.179C285.401 161.179 286.617 160.854 287.518 160.204C288.427 159.545 288.882 158.756 288.882 157.837C288.882 157.094 288.622 156.472 288.103 155.971C287.583 155.461 286.784 155.08 285.708 154.829L282.143 153.994C280.185 153.53 278.746 152.81 277.827 151.836C276.917 150.852 276.462 149.622 276.462 148.146C276.462 146.939 276.801 145.872 277.479 144.943C278.166 144.015 279.099 143.287 280.277 142.757C281.466 142.228 282.812 141.964 284.315 141.964C286.432 141.964 288.093 142.428 289.3 143.356C290.516 144.284 291.379 145.51 291.89 147.032ZM305.915 164.075C303.91 164.075 302.183 163.601 300.735 162.654C299.287 161.708 298.173 160.403 297.393 158.742C296.613 157.08 296.224 155.182 296.224 153.047C296.224 150.875 296.623 148.958 297.421 147.297C298.229 145.626 299.352 144.322 300.791 143.384C302.239 142.437 303.928 141.964 305.859 141.964C307.363 141.964 308.718 142.242 309.925 142.799C311.131 143.356 312.12 144.136 312.89 145.138C313.661 146.141 314.139 147.31 314.324 148.647H311.038C310.788 147.672 310.231 146.809 309.368 146.057C308.514 145.296 307.363 144.916 305.915 144.916C304.634 144.916 303.51 145.25 302.545 145.918C301.589 146.577 300.842 147.51 300.303 148.717C299.774 149.914 299.51 151.321 299.51 152.936C299.51 154.588 299.77 156.027 300.289 157.252C300.818 158.477 301.561 159.429 302.517 160.106C303.483 160.784 304.615 161.123 305.915 161.123C306.769 161.123 307.544 160.974 308.24 160.677C308.936 160.38 309.525 159.953 310.008 159.396C310.491 158.839 310.834 158.171 311.038 157.391H314.324C314.139 158.654 313.679 159.791 312.946 160.803C312.222 161.805 311.261 162.603 310.064 163.197C308.876 163.782 307.493 164.075 305.915 164.075ZM319.128 163.629V142.242H322.303V145.473H322.526C322.915 144.414 323.621 143.556 324.642 142.897C325.663 142.238 326.814 141.908 328.095 141.908C328.336 141.908 328.638 141.913 329 141.922C329.362 141.931 329.636 141.945 329.822 141.964V145.305C329.71 145.278 329.455 145.236 329.056 145.18C328.666 145.115 328.253 145.083 327.817 145.083C326.777 145.083 325.849 145.301 325.032 145.737C324.224 146.164 323.584 146.758 323.11 147.519C322.646 148.271 322.414 149.13 322.414 150.095V163.629H319.128ZM333.717 163.629V142.242H337.003V163.629H333.717ZM335.388 138.678C334.747 138.678 334.195 138.46 333.731 138.023C333.276 137.587 333.048 137.063 333.048 136.45C333.048 135.837 333.276 135.313 333.731 134.877C334.195 134.44 334.747 134.222 335.388 134.222C336.028 134.222 336.576 134.44 337.031 134.877C337.495 135.313 337.727 135.837 337.727 136.45C337.727 137.063 337.495 137.587 337.031 138.023C336.576 138.46 336.028 138.678 335.388 138.678ZM343.021 171.649V142.242H346.196V145.64H346.586C346.827 145.268 347.161 144.795 347.588 144.219C348.025 143.635 348.646 143.115 349.454 142.66C350.271 142.196 351.375 141.964 352.768 141.964C354.569 141.964 356.156 142.414 357.53 143.314C358.904 144.215 359.976 145.491 360.746 147.143C361.517 148.796 361.902 150.745 361.902 152.991C361.902 155.256 361.517 157.22 360.746 158.881C359.976 160.533 358.908 161.814 357.544 162.724C356.179 163.624 354.606 164.075 352.824 164.075C351.45 164.075 350.35 163.847 349.524 163.392C348.697 162.928 348.062 162.404 347.616 161.819C347.171 161.225 346.827 160.733 346.586 160.343H346.307V171.649H343.021ZM346.252 152.936C346.252 154.551 346.488 155.976 346.962 157.21C347.435 158.436 348.127 159.396 349.036 160.092C349.946 160.779 351.06 161.123 352.378 161.123C353.752 161.123 354.898 160.761 355.817 160.037C356.745 159.303 357.442 158.32 357.906 157.085C358.379 155.841 358.616 154.458 358.616 152.936C358.616 151.432 358.384 150.077 357.92 148.87C357.465 147.654 356.773 146.693 355.845 145.988C354.926 145.273 353.77 144.916 352.378 144.916C351.041 144.916 349.918 145.254 349.008 145.932C348.099 146.6 347.412 147.538 346.948 148.745C346.484 149.942 346.252 151.339 346.252 152.936ZM376.215 142.242V145.027H365.132V142.242H376.215ZM368.362 137.118H371.648V157.503C371.648 158.431 371.783 159.127 372.052 159.591C372.331 160.046 372.683 160.352 373.11 160.51C373.547 160.659 374.006 160.733 374.489 160.733C374.851 160.733 375.148 160.714 375.38 160.677C375.612 160.631 375.798 160.594 375.937 160.566L376.605 163.518C376.382 163.601 376.072 163.685 375.672 163.768C375.273 163.861 374.767 163.908 374.155 163.908C373.226 163.908 372.317 163.708 371.426 163.309C370.544 162.91 369.81 162.302 369.226 161.485C368.65 160.668 368.362 159.638 368.362 158.394V137.118ZM381.158 163.629V142.242H384.444V163.629H381.158ZM382.829 138.678C382.189 138.678 381.636 138.46 381.172 138.023C380.717 137.587 380.49 137.063 380.49 136.45C380.49 135.837 380.717 135.313 381.172 134.877C381.636 134.44 382.189 134.222 382.829 134.222C383.47 134.222 384.017 134.44 384.472 134.877C384.936 135.313 385.168 135.837 385.168 136.45C385.168 137.063 384.936 137.587 384.472 138.023C384.017 138.46 383.47 138.678 382.829 138.678ZM399.151 164.075C397.22 164.075 395.526 163.615 394.069 162.696C392.621 161.777 391.489 160.492 390.672 158.839C389.864 157.187 389.46 155.256 389.46 153.047C389.46 150.819 389.864 148.875 390.672 147.213C391.489 145.551 392.621 144.261 394.069 143.342C395.526 142.423 397.22 141.964 399.151 141.964C401.082 141.964 402.771 142.423 404.219 143.342C405.677 144.261 406.809 145.551 407.617 147.213C408.434 148.875 408.842 150.819 408.842 153.047C408.842 155.256 408.434 157.187 407.617 158.839C406.809 160.492 405.677 161.777 404.219 162.696C402.771 163.615 401.082 164.075 399.151 164.075ZM399.151 161.123C400.618 161.123 401.825 160.747 402.771 159.995C403.718 159.243 404.419 158.255 404.874 157.029C405.329 155.804 405.556 154.477 405.556 153.047C405.556 151.618 405.329 150.286 404.874 149.051C404.419 147.816 403.718 146.819 402.771 146.057C401.825 145.296 400.618 144.916 399.151 144.916C397.685 144.916 396.478 145.296 395.531 146.057C394.584 146.819 393.883 147.816 393.429 149.051C392.974 150.286 392.746 151.618 392.746 153.047C392.746 154.477 392.974 155.804 393.429 157.029C393.883 158.255 394.584 159.243 395.531 159.995C396.478 160.747 397.685 161.123 399.151 161.123ZM417.144 150.764V163.629H413.858V142.242H417.033V145.584H417.311C417.813 144.498 418.574 143.625 419.595 142.966C420.616 142.298 421.934 141.964 423.549 141.964C424.997 141.964 426.264 142.261 427.35 142.855C428.436 143.44 429.281 144.331 429.884 145.528C430.488 146.716 430.789 148.22 430.789 150.04V163.629H427.503V150.262C427.503 148.582 427.067 147.273 426.195 146.336C425.322 145.389 424.125 144.916 422.602 144.916C421.553 144.916 420.616 145.143 419.79 145.598C418.973 146.053 418.328 146.716 417.854 147.589C417.381 148.462 417.144 149.52 417.144 150.764ZM451.943 147.032L448.991 147.867C448.806 147.375 448.532 146.897 448.17 146.433C447.817 145.96 447.334 145.57 446.722 145.264C446.109 144.957 445.325 144.804 444.369 144.804C443.06 144.804 441.969 145.106 441.096 145.709C440.233 146.303 439.802 147.06 439.802 147.979C439.802 148.796 440.099 149.441 440.693 149.914C441.287 150.388 442.215 150.782 443.477 151.098L446.652 151.877C448.564 152.342 449.989 153.052 450.927 154.008C451.864 154.955 452.333 156.175 452.333 157.67C452.333 158.895 451.98 159.99 451.275 160.956C450.579 161.921 449.604 162.682 448.351 163.239C447.098 163.796 445.64 164.075 443.979 164.075C441.797 164.075 439.992 163.601 438.562 162.654C437.133 161.708 436.228 160.325 435.847 158.505L438.966 157.725C439.263 158.876 439.825 159.74 440.651 160.315C441.486 160.891 442.577 161.179 443.923 161.179C445.455 161.179 446.671 160.854 447.571 160.204C448.481 159.545 448.936 158.756 448.936 157.837C448.936 157.094 448.676 156.472 448.156 155.971C447.636 155.461 446.838 155.08 445.761 154.829L442.196 153.994C440.238 153.53 438.799 152.81 437.88 151.836C436.97 150.852 436.516 149.622 436.516 148.146C436.516 146.939 436.854 145.872 437.532 144.943C438.219 144.015 439.152 143.287 440.331 142.757C441.519 142.228 442.865 141.964 444.369 141.964C446.485 141.964 448.147 142.428 449.353 143.356C450.569 144.284 451.433 145.51 451.943 147.032ZM468.307 163.629V142.242H471.593V163.629H468.307ZM469.978 138.678C469.337 138.678 468.785 138.46 468.321 138.023C467.866 137.587 467.639 137.063 467.639 136.45C467.639 135.837 467.866 135.313 468.321 134.877C468.785 134.44 469.337 134.222 469.978 134.222C470.618 134.222 471.166 134.44 471.621 134.877C472.085 135.313 472.317 135.837 472.317 136.45C472.317 137.063 472.085 137.587 471.621 138.023C471.166 138.46 470.618 138.678 469.978 138.678ZM480.897 150.764V163.629H477.611V142.242H480.786V145.584H481.065C481.566 144.498 482.327 143.625 483.348 142.966C484.369 142.298 485.687 141.964 487.302 141.964C488.75 141.964 490.018 142.261 491.104 142.855C492.19 143.44 493.034 144.331 493.638 145.528C494.241 146.716 494.543 148.22 494.543 150.04V163.629H491.257V150.262C491.257 148.582 490.82 147.273 489.948 146.336C489.075 145.389 487.878 144.916 486.356 144.916C485.307 144.916 484.369 145.143 483.543 145.598C482.726 146.053 482.081 146.716 481.608 147.589C481.134 148.462 480.897 149.52 480.897 150.764ZM509.848 142.242V145.027H498.765V142.242H509.848ZM501.995 137.118H505.281V157.503C505.281 158.431 505.416 159.127 505.685 159.591C505.964 160.046 506.316 160.352 506.743 160.51C507.18 160.659 507.639 160.733 508.122 160.733C508.484 160.733 508.781 160.714 509.013 160.677C509.245 160.631 509.431 160.594 509.57 160.566L510.238 163.518C510.015 163.601 509.704 163.685 509.305 163.768C508.906 163.861 508.4 163.908 507.788 163.908C506.859 163.908 505.95 163.708 505.059 163.309C504.177 162.91 503.443 162.302 502.859 161.485C502.283 160.668 501.995 159.638 501.995 158.394V137.118ZM523.25 164.075C521.319 164.075 519.625 163.615 518.168 162.696C516.72 161.777 515.587 160.492 514.77 158.839C513.963 157.187 513.559 155.256 513.559 153.047C513.559 150.819 513.963 148.875 514.77 147.213C515.587 145.551 516.72 144.261 518.168 143.342C519.625 142.423 521.319 141.964 523.25 141.964C525.181 141.964 526.87 142.423 528.318 143.342C529.776 144.261 530.908 145.551 531.716 147.213C532.532 148.875 532.941 150.819 532.941 153.047C532.941 155.256 532.532 157.187 531.716 158.839C530.908 160.492 529.776 161.777 528.318 162.696C526.87 163.615 525.181 164.075 523.25 164.075ZM523.25 161.123C524.717 161.123 525.923 160.747 526.87 159.995C527.817 159.243 528.518 158.255 528.973 157.029C529.427 155.804 529.655 154.477 529.655 153.047C529.655 151.618 529.427 150.286 528.973 149.051C528.518 147.816 527.817 146.819 526.87 146.057C525.923 145.296 524.717 144.916 523.25 144.916C521.783 144.916 520.577 145.296 519.63 146.057C518.683 146.819 517.982 147.816 517.527 149.051C517.072 150.286 516.845 151.618 516.845 153.047C516.845 154.477 517.072 155.804 517.527 157.029C517.982 158.255 518.683 159.243 519.63 159.995C520.577 160.747 521.783 161.123 523.25 161.123ZM548.984 163.629V142.242H552.159V145.584H552.438C552.883 144.442 553.602 143.556 554.596 142.925C555.589 142.284 556.782 141.964 558.174 141.964C559.585 141.964 560.759 142.284 561.697 142.925C562.644 143.556 563.382 144.442 563.911 145.584H564.133C564.681 144.479 565.503 143.602 566.598 142.952C567.693 142.293 569.007 141.964 570.538 141.964C572.451 141.964 574.015 142.562 575.231 143.76C576.447 144.948 577.055 146.8 577.055 149.315V163.629H573.769V149.315C573.769 147.737 573.337 146.61 572.474 145.932C571.611 145.254 570.594 144.916 569.424 144.916C567.921 144.916 566.756 145.37 565.93 146.28C565.103 147.181 564.69 148.322 564.69 149.705V163.629H561.349V148.981C561.349 147.765 560.954 146.786 560.165 146.043C559.376 145.292 558.36 144.916 557.116 144.916C556.262 144.916 555.464 145.143 554.721 145.598C553.988 146.053 553.394 146.684 552.939 147.491C552.493 148.29 552.27 149.213 552.27 150.262V163.629H548.984ZM596.541 154.885V142.242H599.827V163.629H596.541V160.009H596.318C595.817 161.095 595.037 162.019 593.979 162.78C592.921 163.532 591.584 163.908 589.969 163.908C588.632 163.908 587.444 163.615 586.405 163.03C585.365 162.436 584.548 161.545 583.954 160.357C583.36 159.16 583.063 157.651 583.063 155.832V142.242H586.349V155.609C586.349 157.168 586.785 158.412 587.658 159.341C588.539 160.269 589.663 160.733 591.027 160.733C591.844 160.733 592.675 160.524 593.52 160.106C594.374 159.689 595.088 159.048 595.664 158.185C596.249 157.322 596.541 156.222 596.541 154.885ZM620.995 147.032L618.043 147.867C617.857 147.375 617.583 146.897 617.221 146.433C616.868 145.96 616.386 145.57 615.773 145.264C615.161 144.957 614.376 144.804 613.42 144.804C612.111 144.804 611.021 145.106 610.148 145.709C609.285 146.303 608.853 147.06 608.853 147.979C608.853 148.796 609.15 149.441 609.744 149.914C610.338 150.388 611.267 150.782 612.529 151.098L615.704 151.877C617.616 152.342 619.041 153.052 619.978 154.008C620.916 154.955 621.384 156.175 621.384 157.67C621.384 158.895 621.032 159.99 620.326 160.956C619.63 161.921 618.655 162.682 617.402 163.239C616.149 163.796 614.692 164.075 613.03 164.075C610.849 164.075 609.043 163.601 607.614 162.654C606.184 161.708 605.279 160.325 604.899 158.505L608.018 157.725C608.315 158.876 608.876 159.74 609.702 160.315C610.538 160.891 611.629 161.179 612.974 161.179C614.506 161.179 615.722 160.854 616.623 160.204C617.532 159.545 617.987 158.756 617.987 157.837C617.987 157.094 617.727 156.472 617.207 155.971C616.687 155.461 615.889 155.08 614.812 154.829L611.248 153.994C609.289 153.53 607.851 152.81 606.932 151.836C606.022 150.852 605.567 149.622 605.567 148.146C605.567 146.939 605.906 145.872 606.583 144.943C607.27 144.015 608.203 143.287 609.382 142.757C610.57 142.228 611.916 141.964 613.42 141.964C615.536 141.964 617.198 142.428 618.405 143.356C619.621 144.284 620.484 145.51 620.995 147.032ZM635.298 164.075C633.237 164.075 631.459 163.62 629.965 162.71C628.48 161.791 627.333 160.51 626.526 158.867C625.727 157.215 625.328 155.293 625.328 153.103C625.328 150.912 625.727 148.981 626.526 147.31C627.333 145.63 628.456 144.322 629.895 143.384C631.343 142.437 633.033 141.964 634.963 141.964C636.077 141.964 637.177 142.149 638.263 142.521C639.349 142.892 640.338 143.495 641.229 144.331C642.12 145.157 642.83 146.252 643.359 147.617C643.889 148.981 644.153 150.661 644.153 152.657V154.05H627.667V151.209H640.811C640.811 150.002 640.57 148.926 640.087 147.979C639.614 147.032 638.936 146.285 638.055 145.737C637.182 145.189 636.152 144.916 634.963 144.916C633.655 144.916 632.522 145.24 631.566 145.89C630.619 146.531 629.891 147.366 629.38 148.397C628.87 149.427 628.614 150.532 628.614 151.71V153.604C628.614 155.219 628.893 156.588 629.45 157.712C630.016 158.825 630.8 159.675 631.803 160.26C632.805 160.835 633.97 161.123 635.298 161.123C636.161 161.123 636.941 161.002 637.637 160.761C638.342 160.51 638.95 160.139 639.461 159.647C639.971 159.146 640.366 158.524 640.644 157.781L643.819 158.672C643.485 159.749 642.923 160.696 642.134 161.513C641.345 162.32 640.371 162.951 639.21 163.406C638.05 163.852 636.746 164.075 635.298 164.075ZM662.63 154.885V142.242H665.916V163.629H662.63V160.009H662.407C661.906 161.095 661.126 162.019 660.068 162.78C659.01 163.532 657.673 163.908 656.058 163.908C654.721 163.908 653.533 163.615 652.494 163.03C651.454 162.436 650.637 161.545 650.043 160.357C649.449 159.16 649.152 157.651 649.152 155.832V142.242H652.438V155.609C652.438 157.168 652.874 158.412 653.747 159.341C654.628 160.269 655.752 160.733 657.116 160.733C657.933 160.733 658.764 160.524 659.609 160.106C660.463 159.689 661.177 159.048 661.753 158.185C662.338 157.322 662.63 156.222 662.63 154.885ZM671.935 163.629V142.242H675.109V145.584H675.388C675.833 144.442 676.553 143.556 677.546 142.925C678.539 142.284 679.732 141.964 681.124 141.964C682.535 141.964 683.709 142.284 684.647 142.925C685.594 143.556 686.332 144.442 686.861 145.584H687.084C687.631 144.479 688.453 143.602 689.548 142.952C690.643 142.293 691.957 141.964 693.488 141.964C695.401 141.964 696.965 142.562 698.181 143.76C699.397 144.948 700.005 146.8 700.005 149.315V163.629H696.719V149.315C696.719 147.737 696.287 146.61 695.424 145.932C694.561 145.254 693.544 144.916 692.375 144.916C690.871 144.916 689.706 145.37 688.88 146.28C688.054 147.181 687.64 148.322 687.64 149.705V163.629H684.299V148.981C684.299 147.765 683.904 146.786 683.115 146.043C682.326 145.292 681.31 144.916 680.066 144.916C679.212 144.916 678.414 145.143 677.671 145.598C676.938 146.053 676.344 146.684 675.889 147.491C675.443 148.29 675.221 149.213 675.221 150.262V163.629H671.935ZM718.266 149.872V152.936H705.79V149.872H718.266ZM738.64 171.649V160.343H738.361C738.12 160.733 737.776 161.225 737.331 161.819C736.885 162.404 736.249 162.928 735.423 163.392C734.597 163.847 733.497 164.075 732.123 164.075C730.341 164.075 728.768 163.624 727.403 162.724C726.039 161.814 724.971 160.533 724.201 158.881C723.43 157.22 723.045 155.256 723.045 152.991C723.045 150.745 723.43 148.796 724.201 147.143C724.971 145.491 726.043 144.215 727.417 143.314C728.791 142.414 730.378 141.964 732.179 141.964C733.571 141.964 734.671 142.196 735.479 142.66C736.296 143.115 736.918 143.635 737.345 144.219C737.781 144.795 738.12 145.268 738.361 145.64H738.751V142.242H741.926V171.649H738.64ZM732.569 161.123C733.887 161.123 735.001 160.779 735.91 160.092C736.82 159.396 737.512 158.436 737.985 157.21C738.458 155.976 738.695 154.551 738.695 152.936C738.695 151.339 738.463 149.942 737.999 148.745C737.535 147.538 736.848 146.6 735.938 145.932C735.029 145.254 733.905 144.916 732.569 144.916C731.176 144.916 730.016 145.273 729.088 145.988C728.169 146.693 727.477 147.654 727.013 148.87C726.558 150.077 726.331 151.432 726.331 152.936C726.331 154.458 726.563 155.841 727.027 157.085C727.501 158.32 728.197 159.303 729.116 160.037C730.044 160.761 731.195 161.123 732.569 161.123ZM761.419 154.885V142.242H764.705V163.629H761.419V160.009H761.196C760.695 161.095 759.915 162.019 758.857 162.78C757.799 163.532 756.462 163.908 754.847 163.908C753.51 163.908 752.322 163.615 751.282 163.03C750.243 162.436 749.426 161.545 748.832 160.357C748.238 159.16 747.941 157.651 747.941 155.832V142.242H751.227V155.609C751.227 157.168 751.663 158.412 752.535 159.341C753.417 160.269 754.54 160.733 755.905 160.733C756.722 160.733 757.553 160.524 758.397 160.106C759.251 159.689 759.966 159.048 760.542 158.185C761.126 157.322 761.419 156.222 761.419 154.885ZM777.017 164.13C775.662 164.13 774.432 163.875 773.327 163.365C772.222 162.845 771.345 162.097 770.695 161.123C770.046 160.139 769.721 158.951 769.721 157.558C769.721 156.333 769.962 155.34 770.445 154.579C770.928 153.808 771.573 153.205 772.38 152.769C773.188 152.332 774.079 152.007 775.054 151.794C776.038 151.571 777.026 151.395 778.019 151.265C779.319 151.098 780.372 150.972 781.18 150.889C781.997 150.796 782.591 150.643 782.962 150.429C783.343 150.216 783.533 149.845 783.533 149.315V149.204C783.533 147.83 783.157 146.763 782.405 146.002C781.663 145.24 780.535 144.86 779.022 144.86C777.453 144.86 776.223 145.203 775.332 145.89C774.441 146.577 773.814 147.31 773.452 148.09L770.333 146.976C770.89 145.677 771.633 144.665 772.561 143.941C773.499 143.208 774.52 142.697 775.624 142.409C776.738 142.112 777.834 141.964 778.91 141.964C779.597 141.964 780.386 142.047 781.278 142.214C782.178 142.372 783.046 142.702 783.881 143.203C784.726 143.704 785.427 144.461 785.984 145.473C786.541 146.484 786.819 147.84 786.819 149.538V163.629H783.533V160.733H783.366C783.143 161.197 782.772 161.694 782.252 162.223C781.732 162.752 781.041 163.202 780.178 163.573C779.314 163.945 778.261 164.13 777.017 164.13ZM777.518 161.179C778.818 161.179 779.913 160.923 780.804 160.413C781.705 159.902 782.382 159.243 782.837 158.436C783.301 157.628 783.533 156.779 783.533 155.887V152.88C783.394 153.047 783.088 153.2 782.614 153.339C782.15 153.469 781.612 153.585 780.999 153.688C780.396 153.78 779.806 153.864 779.231 153.938C778.665 154.003 778.205 154.059 777.852 154.105C776.998 154.217 776.2 154.398 775.457 154.648C774.724 154.89 774.13 155.256 773.675 155.748C773.23 156.231 773.007 156.89 773.007 157.725C773.007 158.867 773.429 159.73 774.274 160.315C775.128 160.891 776.209 161.179 777.518 161.179ZM796.103 135.113V163.629H792.817V135.113H796.103ZM802.121 163.629V142.242H805.407V163.629H802.121ZM803.792 138.678C803.152 138.678 802.599 138.46 802.135 138.023C801.68 137.587 801.453 137.063 801.453 136.45C801.453 135.837 801.68 135.313 802.135 134.877C802.599 134.44 803.152 134.222 803.792 134.222C804.433 134.222 804.98 134.44 805.435 134.877C805.899 135.313 806.131 135.837 806.131 136.45C806.131 137.063 805.899 137.587 805.435 138.023C804.98 138.46 804.433 138.678 803.792 138.678ZM820.727 142.242V145.027H809.644V142.242H820.727ZM812.874 137.118H816.16V157.503C816.16 158.431 816.295 159.127 816.564 159.591C816.842 160.046 817.195 160.352 817.622 160.51C818.058 160.659 818.518 160.733 819 160.733C819.362 160.733 819.659 160.714 819.891 160.677C820.124 160.631 820.309 160.594 820.448 160.566L821.117 163.518C820.894 163.601 820.583 163.685 820.184 163.768C819.785 163.861 819.279 163.908 818.666 163.908C817.738 163.908 816.828 163.708 815.937 163.309C815.055 162.91 814.322 162.302 813.737 161.485C813.162 160.668 812.874 159.638 812.874 158.394V137.118ZM827.786 171.649C827.229 171.649 826.733 171.603 826.296 171.51C825.86 171.426 825.558 171.343 825.391 171.259L826.227 168.363C827.025 168.567 827.73 168.642 828.343 168.586C828.956 168.53 829.499 168.256 829.972 167.764C830.455 167.282 830.896 166.497 831.295 165.411L831.908 163.74L823.999 142.242H827.563L833.467 159.285H833.69L839.593 142.242H843.158L834.08 166.748C833.671 167.853 833.165 168.767 832.562 169.491C831.959 170.224 831.258 170.767 830.46 171.12C829.671 171.473 828.779 171.649 827.786 171.649Z" fill="#C1C6D7"/>
<path d="M64.5519 228.075C62.7697 228.075 61.1963 227.624 59.8318 226.724C58.4673 225.814 57.3998 224.533 56.6293 222.881C55.8589 221.22 55.4737 219.256 55.4737 216.991C55.4737 214.745 55.8589 212.796 56.6293 211.143C57.3998 209.491 58.4719 208.215 59.8457 207.314C61.2195 206.414 62.8068 205.964 64.6076 205.964C66 205.964 67.1 206.196 67.9076 206.66C68.7244 207.115 69.3463 207.635 69.7733 208.219C70.2096 208.795 70.5484 209.268 70.7898 209.64H71.0682V199.113H74.3542V227.629H71.1796V224.343H70.7898C70.5484 224.733 70.205 225.225 69.7594 225.819C69.3139 226.404 68.678 226.928 67.8519 227.392C67.0257 227.847 65.9258 228.075 64.5519 228.075ZM64.9975 225.123C66.3156 225.123 67.4295 224.779 68.3392 224.092C69.2489 223.396 69.9404 222.436 70.4138 221.21C70.8872 219.976 71.1239 218.551 71.1239 216.936C71.1239 215.339 70.8919 213.942 70.4278 212.745C69.9636 211.538 69.2767 210.6 68.367 209.932C67.4574 209.254 66.3342 208.916 64.9975 208.916C63.6051 208.916 62.4448 209.273 61.5166 209.988C60.5976 210.693 59.9061 211.654 59.4419 212.87C58.9871 214.077 58.7597 215.432 58.7597 216.936C58.7597 218.458 58.9917 219.841 59.4559 221.085C59.9293 222.32 60.6255 223.303 61.5444 224.037C62.4727 224.761 63.6237 225.123 64.9975 225.123ZM80.8288 227.629V206.242H84.1148V227.629H80.8288ZM82.4996 202.678C81.8591 202.678 81.3068 202.46 80.8427 202.023C80.3879 201.587 80.1604 201.063 80.1604 200.45C80.1604 199.837 80.3879 199.313 80.8427 198.877C81.3068 198.44 81.8591 198.222 82.4996 198.222C83.1401 198.222 83.6878 198.44 84.1426 198.877C84.6068 199.313 84.8388 199.837 84.8388 200.45C84.8388 201.063 84.6068 201.587 84.1426 202.023C83.6878 202.46 83.1401 202.678 82.4996 202.678ZM98.766 236.095C97.1787 236.095 95.8142 235.891 94.6724 235.482C93.5307 235.083 92.5792 234.554 91.8181 233.895C91.0662 233.245 90.4675 232.549 90.0219 231.806L92.6396 229.968C92.9366 230.358 93.3126 230.804 93.7674 231.305C94.2222 231.815 94.8442 232.256 95.6332 232.628C96.4315 233.008 97.4758 233.199 98.766 233.199C100.493 233.199 101.917 232.781 103.041 231.945C104.164 231.11 104.725 229.801 104.725 228.019V223.675H104.447C104.206 224.065 103.862 224.547 103.417 225.123C102.98 225.689 102.349 226.195 101.523 226.641C100.706 227.077 99.6014 227.295 98.2091 227.295C96.4825 227.295 94.9324 226.886 93.5585 226.07C92.194 225.253 91.1126 224.065 90.3143 222.505C89.5253 220.946 89.1308 219.052 89.1308 216.824C89.1308 214.634 89.516 212.726 90.2865 211.102C91.0569 209.468 92.129 208.205 93.5029 207.314C94.8767 206.414 96.464 205.964 98.2648 205.964C99.6571 205.964 100.762 206.196 101.579 206.66C102.405 207.115 103.036 207.635 103.472 208.219C103.918 208.795 104.261 209.268 104.503 209.64H104.837V206.242H108.011V228.242C108.011 230.08 107.594 231.574 106.758 232.725C105.932 233.885 104.818 234.735 103.417 235.273C102.024 235.821 100.474 236.095 98.766 236.095ZM98.6546 224.343C99.9727 224.343 101.087 224.041 101.996 223.438C102.906 222.835 103.598 221.967 104.071 220.834C104.544 219.702 104.781 218.347 104.781 216.769C104.781 215.228 104.549 213.868 104.085 212.689C103.621 211.51 102.934 210.586 102.024 209.918C101.114 209.25 99.9913 208.916 98.6546 208.916C97.2623 208.916 96.1019 209.268 95.1737 209.974C94.2547 210.679 93.5632 211.626 93.0991 212.814C92.6442 214.002 92.4168 215.321 92.4168 216.769C92.4168 218.254 92.6489 219.567 93.113 220.709C93.5864 221.841 94.2826 222.733 95.2015 223.382C96.1298 224.023 97.2808 224.343 98.6546 224.343ZM114.026 227.629V206.242H117.312V227.629H114.026ZM115.697 202.678C115.057 202.678 114.504 202.46 114.04 202.023C113.586 201.587 113.358 201.063 113.358 200.45C113.358 199.837 113.586 199.313 114.04 198.877C114.504 198.44 115.057 198.222 115.697 198.222C116.338 198.222 116.885 198.44 117.34 198.877C117.804 199.313 118.036 199.837 118.036 200.45C118.036 201.063 117.804 201.587 117.34 202.023C116.885 202.46 116.338 202.678 115.697 202.678ZM132.632 206.242V209.027H121.549V206.242H132.632ZM124.779 201.118H128.065V221.503C128.065 222.431 128.2 223.127 128.469 223.591C128.747 224.046 129.1 224.352 129.527 224.51C129.963 224.659 130.423 224.733 130.905 224.733C131.267 224.733 131.565 224.714 131.797 224.677C132.029 224.631 132.214 224.594 132.354 224.566L133.022 227.518C132.799 227.601 132.488 227.685 132.089 227.768C131.69 227.861 131.184 227.908 130.571 227.908C129.643 227.908 128.733 227.708 127.842 227.309C126.96 226.91 126.227 226.302 125.642 225.485C125.067 224.668 124.779 223.638 124.779 222.394V201.118ZM143.868 228.13C142.513 228.13 141.283 227.875 140.179 227.365C139.074 226.845 138.197 226.097 137.547 225.123C136.897 224.139 136.572 222.951 136.572 221.558C136.572 220.333 136.814 219.34 137.296 218.579C137.779 217.808 138.424 217.205 139.232 216.769C140.039 216.332 140.931 216.007 141.905 215.794C142.889 215.571 143.878 215.395 144.871 215.265C146.171 215.098 147.224 214.972 148.032 214.889C148.849 214.796 149.443 214.643 149.814 214.429C150.194 214.216 150.385 213.845 150.385 213.315V213.204C150.385 211.83 150.009 210.763 149.257 210.002C148.514 209.24 147.387 208.86 145.873 208.86C144.305 208.86 143.075 209.203 142.184 209.89C141.293 210.577 140.666 211.31 140.304 212.09L137.185 210.976C137.742 209.677 138.485 208.665 139.413 207.941C140.35 207.208 141.371 206.697 142.476 206.409C143.59 206.112 144.685 205.964 145.762 205.964C146.449 205.964 147.238 206.047 148.129 206.214C149.03 206.372 149.897 206.702 150.733 207.203C151.578 207.704 152.278 208.461 152.835 209.473C153.392 210.484 153.671 211.84 153.671 213.538V227.629H150.385V224.733H150.218C149.995 225.197 149.624 225.694 149.104 226.223C148.584 226.752 147.892 227.202 147.029 227.573C146.166 227.945 145.112 228.13 143.868 228.13ZM144.37 225.179C145.669 225.179 146.765 224.923 147.656 224.413C148.556 223.902 149.234 223.243 149.689 222.436C150.153 221.628 150.385 220.779 150.385 219.887V216.88C150.246 217.047 149.939 217.2 149.466 217.339C149.002 217.469 148.463 217.585 147.851 217.688C147.247 217.78 146.658 217.864 146.082 217.938C145.516 218.003 145.057 218.059 144.704 218.105C143.85 218.217 143.052 218.398 142.309 218.648C141.576 218.89 140.982 219.256 140.527 219.748C140.081 220.231 139.858 220.89 139.858 221.725C139.858 222.867 140.281 223.73 141.125 224.315C141.979 224.891 143.061 225.179 144.37 225.179ZM162.954 199.113V227.629H159.668V199.113H162.954ZM186.294 228.13C184.939 228.13 183.709 227.875 182.604 227.365C181.5 226.845 180.622 226.097 179.973 225.123C179.323 224.139 178.998 222.951 178.998 221.558C178.998 220.333 179.239 219.34 179.722 218.579C180.205 217.808 180.85 217.205 181.657 216.769C182.465 216.332 183.356 216.007 184.331 215.794C185.315 215.571 186.303 215.395 187.297 215.265C188.596 215.098 189.65 214.972 190.457 214.889C191.274 214.796 191.868 214.643 192.239 214.429C192.62 214.216 192.81 213.845 192.81 213.315V213.204C192.81 211.83 192.434 210.763 191.683 210.002C190.94 209.24 189.812 208.86 188.299 208.86C186.73 208.86 185.5 209.203 184.609 209.89C183.718 210.577 183.092 211.31 182.73 212.09L179.611 210.976C180.168 209.677 180.91 208.665 181.838 207.941C182.776 207.208 183.797 206.697 184.902 206.409C186.016 206.112 187.111 205.964 188.188 205.964C188.875 205.964 189.664 206.047 190.555 206.214C191.455 206.372 192.323 206.702 193.158 207.203C194.003 207.704 194.704 208.461 195.261 209.473C195.818 210.484 196.096 211.84 196.096 213.538V227.629H192.81V224.733H192.643C192.42 225.197 192.049 225.694 191.529 226.223C191.01 226.752 190.318 227.202 189.455 227.573C188.591 227.945 187.538 228.13 186.294 228.13ZM186.795 225.179C188.095 225.179 189.19 224.923 190.081 224.413C190.982 223.902 191.659 223.243 192.114 222.436C192.578 221.628 192.81 220.779 192.81 219.887V216.88C192.671 217.047 192.365 217.2 191.891 217.339C191.427 217.469 190.889 217.585 190.276 217.688C189.673 217.78 189.083 217.864 188.508 217.938C187.942 218.003 187.482 218.059 187.129 218.105C186.275 218.217 185.477 218.398 184.735 218.648C184.001 218.89 183.407 219.256 182.952 219.748C182.507 220.231 182.284 220.89 182.284 221.725C182.284 222.867 182.706 223.73 183.551 224.315C184.405 224.891 185.486 225.179 186.795 225.179ZM202.094 227.629V206.242H205.269V209.473H205.491C205.881 208.414 206.587 207.556 207.608 206.897C208.629 206.238 209.78 205.908 211.061 205.908C211.302 205.908 211.604 205.913 211.966 205.922C212.328 205.931 212.602 205.945 212.787 205.964V209.305C212.676 209.278 212.421 209.236 212.022 209.18C211.632 209.115 211.219 209.083 210.782 209.083C209.743 209.083 208.815 209.301 207.998 209.737C207.19 210.164 206.55 210.758 206.076 211.519C205.612 212.271 205.38 213.13 205.38 214.095V227.629H202.094ZM227.324 206.242V209.027H216.241V206.242H227.324ZM219.471 201.118H222.757V221.503C222.757 222.431 222.891 223.127 223.161 223.591C223.439 224.046 223.792 224.352 224.219 224.51C224.655 224.659 225.115 224.733 225.597 224.733C225.959 224.733 226.256 224.714 226.488 224.677C226.72 224.631 226.906 224.594 227.045 224.566L227.714 227.518C227.491 227.601 227.18 227.685 226.781 227.768C226.382 227.861 225.876 227.908 225.263 227.908C224.335 227.908 223.425 227.708 222.534 227.309C221.652 226.91 220.919 226.302 220.334 225.485C219.759 224.668 219.471 223.638 219.471 222.394V201.118ZM256.772 218.885V206.242H260.058V227.629H256.772V224.009H256.55C256.048 225.095 255.269 226.019 254.211 226.78C253.152 227.532 251.816 227.908 250.2 227.908C248.864 227.908 247.676 227.615 246.636 227.03C245.596 226.436 244.779 225.545 244.185 224.357C243.591 223.16 243.294 221.651 243.294 219.832V206.242H246.58V219.609C246.58 221.168 247.017 222.412 247.889 223.341C248.771 224.269 249.894 224.733 251.259 224.733C252.076 224.733 252.906 224.524 253.751 224.106C254.605 223.689 255.32 223.048 255.895 222.185C256.48 221.322 256.772 220.222 256.772 218.885ZM281.226 211.032L278.274 211.867C278.089 211.375 277.815 210.897 277.453 210.433C277.1 209.96 276.617 209.57 276.005 209.264C275.392 208.957 274.608 208.804 273.652 208.804C272.343 208.804 271.252 209.106 270.379 209.709C269.516 210.303 269.085 211.06 269.085 211.979C269.085 212.796 269.382 213.441 269.976 213.914C270.57 214.388 271.498 214.782 272.76 215.098L275.935 215.877C277.847 216.342 279.272 217.052 280.21 218.008C281.147 218.955 281.616 220.175 281.616 221.67C281.616 222.895 281.263 223.99 280.558 224.956C279.861 225.921 278.887 226.682 277.634 227.239C276.381 227.796 274.923 228.075 273.262 228.075C271.08 228.075 269.275 227.601 267.845 226.654C266.416 225.708 265.511 224.325 265.13 222.505L268.249 221.725C268.546 222.876 269.108 223.74 269.934 224.315C270.769 224.891 271.86 225.179 273.206 225.179C274.738 225.179 275.954 224.854 276.854 224.204C277.764 223.545 278.218 222.756 278.218 221.837C278.218 221.094 277.959 220.472 277.439 219.971C276.919 219.461 276.121 219.08 275.044 218.829L271.479 217.994C269.521 217.53 268.082 216.81 267.163 215.836C266.253 214.852 265.799 213.622 265.799 212.146C265.799 210.939 266.137 209.872 266.815 208.943C267.502 208.015 268.435 207.287 269.614 206.757C270.802 206.228 272.148 205.964 273.652 205.964C275.768 205.964 277.429 206.428 278.636 207.356C279.852 208.284 280.715 209.51 281.226 211.032ZM286.562 227.629V206.242H289.848V227.629H286.562ZM288.233 202.678C287.593 202.678 287.04 202.46 286.576 202.023C286.121 201.587 285.894 201.063 285.894 200.45C285.894 199.837 286.121 199.313 286.576 198.877C287.04 198.44 287.593 198.222 288.233 198.222C288.874 198.222 289.421 198.44 289.876 198.877C290.34 199.313 290.572 199.837 290.572 200.45C290.572 201.063 290.34 201.587 289.876 202.023C289.421 202.46 288.874 202.678 288.233 202.678ZM299.153 214.764V227.629H295.867V206.242H299.041V209.584H299.32C299.821 208.498 300.582 207.625 301.603 206.966C302.624 206.298 303.943 205.964 305.558 205.964C307.006 205.964 308.273 206.261 309.359 206.855C310.445 207.44 311.29 208.331 311.893 209.528C312.496 210.716 312.798 212.22 312.798 214.04V227.629H309.512V214.262C309.512 212.582 309.076 211.273 308.203 210.336C307.331 209.389 306.133 208.916 304.611 208.916C303.562 208.916 302.624 209.143 301.798 209.598C300.981 210.053 300.336 210.716 299.863 211.589C299.39 212.462 299.153 213.52 299.153 214.764ZM327.435 236.095C325.848 236.095 324.484 235.891 323.342 235.482C322.2 235.083 321.249 234.554 320.487 233.895C319.736 233.245 319.137 232.549 318.691 231.806L321.309 229.968C321.606 230.358 321.982 230.804 322.437 231.305C322.892 231.815 323.514 232.256 324.303 232.628C325.101 233.008 326.145 233.199 327.435 233.199C329.162 233.199 330.587 232.781 331.71 231.945C332.833 231.11 333.395 229.801 333.395 228.019V223.675H333.116C332.875 224.065 332.531 224.547 332.086 225.123C331.65 225.689 331.018 226.195 330.192 226.641C329.375 227.077 328.271 227.295 326.878 227.295C325.152 227.295 323.602 226.886 322.228 226.07C320.863 225.253 319.782 224.065 318.984 222.505C318.195 220.946 317.8 219.052 317.8 216.824C317.8 214.634 318.185 212.726 318.956 211.102C319.726 209.468 320.798 208.205 322.172 207.314C323.546 206.414 325.133 205.964 326.934 205.964C328.326 205.964 329.431 206.196 330.248 206.66C331.074 207.115 331.705 207.635 332.142 208.219C332.587 208.795 332.931 209.268 333.172 209.64H333.506V206.242H336.681V228.242C336.681 230.08 336.263 231.574 335.428 232.725C334.601 233.885 333.488 234.735 332.086 235.273C330.694 235.821 329.143 236.095 327.435 236.095ZM327.324 224.343C328.642 224.343 329.756 224.041 330.666 223.438C331.575 222.835 332.267 221.967 332.74 220.834C333.214 219.702 333.45 218.347 333.45 216.769C333.45 215.228 333.218 213.868 332.754 212.689C332.29 211.51 331.603 210.586 330.694 209.918C329.784 209.25 328.661 208.916 327.324 208.916C325.932 208.916 324.771 209.268 323.843 209.974C322.924 210.679 322.233 211.626 321.768 212.814C321.314 214.002 321.086 215.321 321.086 216.769C321.086 218.254 321.318 219.567 321.782 220.709C322.256 221.841 322.952 222.733 323.871 223.382C324.799 224.023 325.95 224.343 327.324 224.343ZM362.412 228.075C360.481 228.075 358.787 227.615 357.33 226.696C355.882 225.777 354.749 224.492 353.932 222.839C353.125 221.187 352.721 219.256 352.721 217.047C352.721 214.819 353.125 212.875 353.932 211.213C354.749 209.551 355.882 208.261 357.33 207.342C358.787 206.423 360.481 205.964 362.412 205.964C364.343 205.964 366.032 206.423 367.48 207.342C368.937 208.261 370.07 209.551 370.877 211.213C371.694 212.875 372.103 214.819 372.103 217.047C372.103 219.256 371.694 221.187 370.877 222.839C370.07 224.492 368.937 225.777 367.48 226.696C366.032 227.615 364.343 228.075 362.412 228.075ZM362.412 225.123C363.878 225.123 365.085 224.747 366.032 223.995C366.979 223.243 367.68 222.255 368.134 221.029C368.589 219.804 368.817 218.477 368.817 217.047C368.817 215.618 368.589 214.286 368.134 213.051C367.68 211.816 366.979 210.819 366.032 210.057C365.085 209.296 363.878 208.916 362.412 208.916C360.945 208.916 359.738 209.296 358.792 210.057C357.845 210.819 357.144 211.816 356.689 213.051C356.234 214.286 356.007 215.618 356.007 217.047C356.007 218.477 356.234 219.804 356.689 221.029C357.144 222.255 357.845 223.243 358.792 223.995C359.738 224.747 360.945 225.123 362.412 225.123ZM390.597 218.885V206.242H393.883V227.629H390.597V224.009H390.374C389.873 225.095 389.093 226.019 388.035 226.78C386.977 227.532 385.64 227.908 384.025 227.908C382.688 227.908 381.5 227.615 380.46 227.03C379.421 226.436 378.604 225.545 378.01 224.357C377.416 223.16 377.119 221.651 377.119 219.832V206.242H380.405V219.609C380.405 221.168 380.841 222.412 381.714 223.341C382.595 224.269 383.719 224.733 385.083 224.733C385.9 224.733 386.731 224.524 387.575 224.106C388.429 223.689 389.144 223.048 389.72 222.185C390.305 221.322 390.597 220.222 390.597 218.885ZM399.901 227.629V206.242H403.076V209.473H403.299C403.689 208.414 404.394 207.556 405.415 206.897C406.436 206.238 407.587 205.908 408.868 205.908C409.11 205.908 409.411 205.913 409.773 205.922C410.135 205.931 410.409 205.945 410.595 205.964V209.305C410.483 209.278 410.228 209.236 409.829 209.18C409.439 209.115 409.026 209.083 408.59 209.083C407.55 209.083 406.622 209.301 405.805 209.737C404.997 210.164 404.357 210.758 403.884 211.519C403.419 212.271 403.187 213.13 403.187 214.095V227.629H399.901ZM440.667 211.032L437.715 211.867C437.529 211.375 437.255 210.897 436.893 210.433C436.541 209.96 436.058 209.57 435.445 209.264C434.833 208.957 434.048 208.804 433.092 208.804C431.783 208.804 430.693 209.106 429.82 209.709C428.957 210.303 428.525 211.06 428.525 211.979C428.525 212.796 428.822 213.441 429.416 213.914C430.01 214.388 430.939 214.782 432.201 215.098L435.376 215.877C437.288 216.342 438.713 217.052 439.65 218.008C440.588 218.955 441.056 220.175 441.056 221.67C441.056 222.895 440.704 223.99 439.998 224.956C439.302 225.921 438.327 226.682 437.074 227.239C435.821 227.796 434.364 228.075 432.702 228.075C430.521 228.075 428.715 227.601 427.286 226.654C425.856 225.708 424.951 224.325 424.571 222.505L427.69 221.725C427.987 222.876 428.548 223.74 429.374 224.315C430.21 224.891 431.301 225.179 432.647 225.179C434.178 225.179 435.394 224.854 436.295 224.204C437.204 223.545 437.659 222.756 437.659 221.837C437.659 221.094 437.399 220.472 436.879 219.971C436.36 219.461 435.561 219.08 434.484 218.829L430.92 217.994C428.961 217.53 427.523 216.81 426.604 215.836C425.694 214.852 425.239 213.622 425.239 212.146C425.239 210.939 425.578 209.872 426.256 208.943C426.942 208.015 427.875 207.287 429.054 206.757C430.242 206.228 431.588 205.964 433.092 205.964C435.209 205.964 436.87 206.428 438.077 207.356C439.293 208.284 440.156 209.51 440.667 211.032ZM446.003 235.649V206.242H449.177V209.64H449.567C449.809 209.268 450.143 208.795 450.57 208.219C451.006 207.635 451.628 207.115 452.436 206.66C453.253 206.196 454.357 205.964 455.749 205.964C457.55 205.964 459.138 206.414 460.511 207.314C461.885 208.215 462.957 209.491 463.728 211.143C464.498 212.796 464.883 214.745 464.883 216.991C464.883 219.256 464.498 221.22 463.728 222.881C462.957 224.533 461.89 225.814 460.525 226.724C459.161 227.624 457.587 228.075 455.805 228.075C454.431 228.075 453.331 227.847 452.505 227.392C451.679 226.928 451.043 226.404 450.598 225.819C450.152 225.225 449.809 224.733 449.567 224.343H449.289V235.649H446.003ZM449.233 216.936C449.233 218.551 449.47 219.976 449.943 221.21C450.417 222.436 451.108 223.396 452.018 224.092C452.928 224.779 454.042 225.123 455.36 225.123C456.733 225.123 457.88 224.761 458.799 224.037C459.727 223.303 460.423 222.32 460.887 221.085C461.361 219.841 461.597 218.458 461.597 216.936C461.597 215.432 461.365 214.077 460.901 212.87C460.446 211.654 459.755 210.693 458.827 209.988C457.908 209.273 456.752 208.916 455.36 208.916C454.023 208.916 452.9 209.254 451.99 209.932C451.08 210.6 450.394 211.538 449.929 212.745C449.465 213.942 449.233 215.339 449.233 216.936ZM478.863 228.075C476.802 228.075 475.025 227.62 473.53 226.71C472.045 225.791 470.898 224.51 470.091 222.867C469.293 221.215 468.893 219.293 468.893 217.103C468.893 214.912 469.293 212.981 470.091 211.31C470.898 209.63 472.022 208.322 473.46 207.384C474.909 206.437 476.598 205.964 478.529 205.964C479.643 205.964 480.743 206.149 481.829 206.521C482.915 206.892 483.903 207.495 484.794 208.331C485.685 209.157 486.396 210.252 486.925 211.617C487.454 212.981 487.718 214.661 487.718 216.657V218.05H471.233V215.209H484.377C484.377 214.002 484.135 212.926 483.653 211.979C483.179 211.032 482.502 210.285 481.62 209.737C480.747 209.189 479.717 208.916 478.529 208.916C477.22 208.916 476.087 209.24 475.131 209.89C474.184 210.531 473.456 211.366 472.945 212.397C472.435 213.427 472.179 214.532 472.179 215.71V217.604C472.179 219.219 472.458 220.588 473.015 221.712C473.581 222.825 474.365 223.675 475.368 224.26C476.371 224.835 477.535 225.123 478.863 225.123C479.726 225.123 480.506 225.002 481.202 224.761C481.908 224.51 482.516 224.139 483.026 223.647C483.537 223.146 483.931 222.524 484.21 221.781L487.384 222.672C487.05 223.749 486.488 224.696 485.699 225.513C484.91 226.32 483.936 226.951 482.775 227.406C481.615 227.852 480.311 228.075 478.863 228.075ZM501.405 228.075C499.4 228.075 497.674 227.601 496.226 226.654C494.778 225.708 493.664 224.403 492.884 222.742C492.104 221.08 491.714 219.182 491.714 217.047C491.714 214.875 492.114 212.958 492.912 211.297C493.719 209.626 494.843 208.322 496.281 207.384C497.73 206.437 499.419 205.964 501.35 205.964C502.853 205.964 504.209 206.242 505.415 206.799C506.622 207.356 507.611 208.136 508.381 209.138C509.152 210.141 509.63 211.31 509.815 212.647H506.529C506.279 211.672 505.722 210.809 504.858 210.057C504.004 209.296 502.853 208.916 501.405 208.916C500.124 208.916 499.001 209.25 498.036 209.918C497.08 210.577 496.332 211.51 495.794 212.717C495.265 213.914 495 215.321 495 216.936C495 218.588 495.26 220.027 495.78 221.252C496.309 222.477 497.052 223.429 498.008 224.106C498.973 224.784 500.106 225.123 501.405 225.123C502.259 225.123 503.034 224.974 503.731 224.677C504.427 224.38 505.016 223.953 505.499 223.396C505.982 222.839 506.325 222.171 506.529 221.391H509.815C509.63 222.654 509.17 223.791 508.437 224.803C507.713 225.805 506.752 226.603 505.555 227.197C504.366 227.782 502.983 228.075 501.405 228.075ZM514.619 227.629V206.242H517.905V227.629H514.619ZM516.29 202.678C515.649 202.678 515.097 202.46 514.633 202.023C514.178 201.587 513.951 201.063 513.951 200.45C513.951 199.837 514.178 199.313 514.633 198.877C515.097 198.44 515.649 198.222 516.29 198.222C516.93 198.222 517.478 198.44 517.933 198.877C518.397 199.313 518.629 199.837 518.629 200.45C518.629 201.063 518.397 201.587 517.933 202.023C517.478 202.46 516.93 202.678 516.29 202.678ZM530.217 228.13C528.862 228.13 527.632 227.875 526.527 227.365C525.423 226.845 524.545 226.097 523.896 225.123C523.246 224.139 522.921 222.951 522.921 221.558C522.921 220.333 523.162 219.34 523.645 218.579C524.128 217.808 524.773 217.205 525.58 216.769C526.388 216.332 527.279 216.007 528.254 215.794C529.238 215.571 530.226 215.395 531.22 215.265C532.519 215.098 533.573 214.972 534.38 214.889C535.197 214.796 535.791 214.643 536.162 214.429C536.543 214.216 536.733 213.845 536.733 213.315V213.204C536.733 211.83 536.357 210.763 535.606 210.002C534.863 209.24 533.735 208.86 532.222 208.86C530.653 208.86 529.423 209.203 528.532 209.89C527.641 210.577 527.015 211.31 526.653 212.09L523.534 210.976C524.091 209.677 524.833 208.665 525.761 207.941C526.699 207.208 527.72 206.697 528.825 206.409C529.939 206.112 531.034 205.964 532.111 205.964C532.798 205.964 533.587 206.047 534.478 206.214C535.378 206.372 536.246 206.702 537.081 207.203C537.926 207.704 538.627 208.461 539.184 209.473C539.741 210.484 540.019 211.84 540.019 213.538V227.629H536.733V224.733H536.566C536.344 225.197 535.972 225.694 535.452 226.223C534.933 226.752 534.241 227.202 533.378 227.573C532.514 227.945 531.461 228.13 530.217 228.13ZM530.718 225.179C532.018 225.179 533.113 224.923 534.004 224.413C534.905 223.902 535.582 223.243 536.037 222.436C536.501 221.628 536.733 220.779 536.733 219.887V216.88C536.594 217.047 536.288 217.2 535.814 217.339C535.35 217.469 534.812 217.585 534.199 217.688C533.596 217.78 533.006 217.864 532.431 217.938C531.865 218.003 531.405 218.059 531.052 218.105C530.199 218.217 529.4 218.398 528.658 218.648C527.924 218.89 527.33 219.256 526.875 219.748C526.43 220.231 526.207 220.89 526.207 221.725C526.207 222.867 526.629 223.73 527.474 224.315C528.328 224.891 529.409 225.179 530.718 225.179ZM549.303 199.113V227.629H546.017V199.113H549.303ZM555.322 227.629V206.242H558.608V227.629H555.322ZM556.992 202.678C556.352 202.678 555.8 202.46 555.335 202.023C554.881 201.587 554.653 201.063 554.653 200.45C554.653 199.837 554.881 199.313 555.335 198.877C555.8 198.44 556.352 198.222 556.992 198.222C557.633 198.222 558.181 198.44 558.635 198.877C559.099 199.313 559.332 199.837 559.332 200.45C559.332 201.063 559.099 201.587 558.635 202.023C558.181 202.46 557.633 202.678 556.992 202.678ZM564.013 227.629V225.123L576.155 209.528V209.305H564.403V206.242H580.388V208.86L568.58 224.343V224.566H580.778V227.629H564.013ZM594.193 228.075C592.132 228.075 590.355 227.62 588.86 226.71C587.375 225.791 586.229 224.51 585.421 222.867C584.623 221.215 584.224 219.293 584.224 217.103C584.224 214.912 584.623 212.981 585.421 211.31C586.229 209.63 587.352 208.322 588.791 207.384C590.239 206.437 591.928 205.964 593.859 205.964C594.973 205.964 596.073 206.149 597.159 206.521C598.245 206.892 599.234 207.495 600.125 208.331C601.016 209.157 601.726 210.252 602.255 211.617C602.784 212.981 603.049 214.661 603.049 216.657V218.05H586.563V215.209H599.707C599.707 214.002 599.466 212.926 598.983 211.979C598.51 211.032 597.832 210.285 596.95 209.737C596.077 209.189 595.047 208.916 593.859 208.916C592.55 208.916 591.418 209.24 590.462 209.89C589.515 210.531 588.786 211.366 588.276 212.397C587.765 213.427 587.51 214.532 587.51 215.71V217.604C587.51 219.219 587.788 220.588 588.345 221.712C588.911 222.825 589.696 223.675 590.698 224.26C591.701 224.835 592.866 225.123 594.193 225.123C595.056 225.123 595.836 225.002 596.532 224.761C597.238 224.51 597.846 224.139 598.356 223.647C598.867 223.146 599.261 222.524 599.54 221.781L602.714 222.672C602.38 223.749 601.819 224.696 601.03 225.513C600.241 226.32 599.266 226.951 598.106 227.406C596.945 227.852 595.641 228.075 594.193 228.075ZM616.123 228.075C614.341 228.075 612.767 227.624 611.403 226.724C610.038 225.814 608.971 224.533 608.2 222.881C607.43 221.22 607.045 219.256 607.045 216.991C607.045 214.745 607.43 212.796 608.2 211.143C608.971 209.491 610.043 208.215 611.417 207.314C612.791 206.414 614.378 205.964 616.179 205.964C617.571 205.964 618.671 206.196 619.479 206.66C620.295 207.115 620.917 207.635 621.344 208.219C621.781 208.795 622.119 209.268 622.361 209.64H622.639V199.113H625.925V227.629H622.751V224.343H622.361C622.119 224.733 621.776 225.225 621.33 225.819C620.885 226.404 620.249 226.928 619.423 227.392C618.597 227.847 617.497 228.075 616.123 228.075ZM616.569 225.123C617.887 225.123 619.001 224.779 619.91 224.092C620.82 223.396 621.511 222.436 621.985 221.21C622.458 219.976 622.695 218.551 622.695 216.936C622.695 215.339 622.463 213.942 621.999 212.745C621.535 211.538 620.848 210.6 619.938 209.932C619.028 209.254 617.905 208.916 616.569 208.916C615.176 208.916 614.016 209.273 613.088 209.988C612.169 210.693 611.477 211.654 611.013 212.87C610.558 214.077 610.331 215.432 610.331 216.936C610.331 218.458 610.563 219.841 611.027 221.085C611.5 222.32 612.196 223.303 613.115 224.037C614.044 224.761 615.195 225.123 616.569 225.123ZM353.666 291.629V270.242H356.841V273.584H357.119C357.565 272.442 358.284 271.556 359.277 270.925C360.27 270.284 361.463 269.964 362.856 269.964C364.267 269.964 365.441 270.284 366.378 270.925C367.325 271.556 368.063 272.442 368.592 273.584H368.815C369.363 272.479 370.184 271.602 371.279 270.952C372.375 270.293 373.688 269.964 375.22 269.964C377.132 269.964 378.696 270.562 379.912 271.76C381.128 272.948 381.736 274.8 381.736 277.315V291.629H378.45V277.315C378.45 275.737 378.019 274.61 377.155 273.932C376.292 273.254 375.276 272.916 374.106 272.916C372.602 272.916 371.437 273.37 370.611 274.28C369.785 275.181 369.372 276.322 369.372 277.705V291.629H366.03V276.981C366.03 275.765 365.636 274.786 364.847 274.043C364.058 273.292 363.041 272.916 361.797 272.916C360.943 272.916 360.145 273.143 359.403 273.598C358.669 274.053 358.075 274.684 357.62 275.491C357.175 276.29 356.952 277.213 356.952 278.262V291.629H353.666ZM396.433 292.075C394.502 292.075 392.808 291.615 391.35 290.696C389.902 289.777 388.77 288.492 387.953 286.839C387.146 285.187 386.742 283.256 386.742 281.047C386.742 278.819 387.146 276.875 387.953 275.213C388.77 273.551 389.902 272.261 391.35 271.342C392.808 270.423 394.502 269.964 396.433 269.964C398.363 269.964 400.053 270.423 401.501 271.342C402.958 272.261 404.091 273.551 404.898 275.213C405.715 276.875 406.124 278.819 406.124 281.047C406.124 283.256 405.715 285.187 404.898 286.839C404.091 288.492 402.958 289.777 401.501 290.696C400.053 291.615 398.363 292.075 396.433 292.075ZM396.433 289.123C397.899 289.123 399.106 288.747 400.053 287.995C401 287.243 401.7 286.255 402.155 285.029C402.61 283.804 402.838 282.477 402.838 281.047C402.838 279.618 402.61 278.286 402.155 277.051C401.7 275.816 401 274.819 400.053 274.057C399.106 273.296 397.899 272.916 396.433 272.916C394.966 272.916 393.759 273.296 392.812 274.057C391.866 274.819 391.165 275.816 390.71 277.051C390.255 278.286 390.028 279.618 390.028 281.047C390.028 282.477 390.255 283.804 390.71 285.029C391.165 286.255 391.866 287.243 392.812 287.995C393.759 288.747 394.966 289.123 396.433 289.123ZM419.215 292.075C417.433 292.075 415.86 291.624 414.495 290.724C413.131 289.814 412.063 288.533 411.293 286.881C410.522 285.22 410.137 283.256 410.137 280.991C410.137 278.745 410.522 276.796 411.293 275.143C412.063 273.491 413.135 272.215 414.509 271.314C415.883 270.414 417.47 269.964 419.271 269.964C420.663 269.964 421.763 270.196 422.571 270.66C423.388 271.115 424.01 271.635 424.437 272.219C424.873 272.795 425.212 273.268 425.453 273.64H425.732V263.113H429.018V291.629H425.843V288.343H425.453C425.212 288.733 424.868 289.225 424.423 289.819C423.977 290.404 423.341 290.928 422.515 291.392C421.689 291.847 420.589 292.075 419.215 292.075ZM419.661 289.123C420.979 289.123 422.093 288.779 423.003 288.092C423.912 287.396 424.604 286.436 425.077 285.21C425.551 283.976 425.787 282.551 425.787 280.936C425.787 279.339 425.555 277.942 425.091 276.745C424.627 275.538 423.94 274.6 423.03 273.932C422.121 273.254 420.998 272.916 419.661 272.916C418.269 272.916 417.108 273.273 416.18 273.988C415.261 274.693 414.569 275.654 414.105 276.87C413.651 278.077 413.423 279.432 413.423 280.936C413.423 282.458 413.655 283.841 414.119 285.085C414.593 286.32 415.289 287.303 416.208 288.037C417.136 288.761 418.287 289.123 419.661 289.123ZM444.459 292.075C442.398 292.075 440.621 291.62 439.126 290.71C437.641 289.791 436.495 288.51 435.687 286.867C434.889 285.215 434.49 283.293 434.49 281.103C434.49 278.912 434.889 276.981 435.687 275.31C436.495 273.63 437.618 272.322 439.057 271.384C440.505 270.437 442.194 269.964 444.125 269.964C445.239 269.964 446.339 270.149 447.425 270.521C448.511 270.892 449.499 271.495 450.391 272.331C451.282 273.157 451.992 274.252 452.521 275.617C453.05 276.981 453.315 278.661 453.315 280.657V282.05H436.829V279.209H449.973C449.973 278.002 449.732 276.926 449.249 275.979C448.775 275.032 448.098 274.285 447.216 273.737C446.343 273.189 445.313 272.916 444.125 272.916C442.816 272.916 441.684 273.24 440.728 273.89C439.781 274.531 439.052 275.366 438.542 276.397C438.031 277.427 437.776 278.532 437.776 279.71V281.604C437.776 283.219 438.054 284.588 438.611 285.712C439.177 286.825 439.962 287.675 440.964 288.26C441.967 288.835 443.132 289.123 444.459 289.123C445.322 289.123 446.102 289.002 446.798 288.761C447.504 288.51 448.112 288.139 448.622 287.647C449.133 287.146 449.527 286.524 449.806 285.781L452.98 286.672C452.646 287.749 452.085 288.696 451.296 289.513C450.507 290.32 449.532 290.951 448.372 291.406C447.211 291.852 445.907 292.075 444.459 292.075ZM461.599 263.113V291.629H458.313V263.113H461.599ZM482.767 275.032L479.815 275.867C479.629 275.375 479.355 274.897 478.993 274.433C478.641 273.96 478.158 273.57 477.545 273.264C476.933 272.957 476.148 272.804 475.192 272.804C473.883 272.804 472.793 273.106 471.92 273.709C471.057 274.303 470.625 275.06 470.625 275.979C470.625 276.796 470.922 277.441 471.516 277.914C472.11 278.388 473.039 278.782 474.301 279.098L477.476 279.877C479.388 280.342 480.813 281.052 481.75 282.008C482.688 282.955 483.157 284.175 483.157 285.67C483.157 286.895 482.804 287.99 482.098 288.956C481.402 289.921 480.428 290.682 479.174 291.239C477.921 291.796 476.464 292.075 474.802 292.075C472.621 292.075 470.816 291.601 469.386 290.654C467.957 289.708 467.051 288.325 466.671 286.505L469.79 285.725C470.087 286.876 470.648 287.74 471.475 288.315C472.31 288.891 473.401 289.179 474.747 289.179C476.278 289.179 477.494 288.854 478.395 288.204C479.304 287.545 479.759 286.756 479.759 285.837C479.759 285.094 479.499 284.472 478.979 283.971C478.46 283.461 477.661 283.08 476.585 282.829L473.02 281.994C471.062 281.53 469.623 280.81 468.704 279.836C467.794 278.852 467.339 277.622 467.339 276.146C467.339 274.939 467.678 273.872 468.356 272.943C469.043 272.015 469.975 271.287 471.154 270.757C472.343 270.228 473.688 269.964 475.192 269.964C477.309 269.964 478.97 270.428 480.177 271.356C481.393 272.284 482.256 273.51 482.767 275.032ZM490.498 291.852C489.811 291.852 489.222 291.606 488.73 291.114C488.238 290.622 487.992 290.033 487.992 289.346C487.992 288.659 488.238 288.069 488.73 287.577C489.222 287.085 489.811 286.839 490.498 286.839C491.185 286.839 491.774 287.085 492.266 287.577C492.758 288.069 493.004 288.659 493.004 289.346C493.004 289.8 492.888 290.218 492.656 290.599C492.433 290.979 492.132 291.286 491.751 291.518C491.38 291.74 490.962 291.852 490.498 291.852Z" fill="#C1C6D7"/>
<path d="M645.043 199.113L653.508 223.118H653.842L662.308 199.113H665.928L655.458 227.629H651.893L641.422 199.113H645.043ZM669.924 227.629V206.242H673.21V227.629H669.924ZM671.595 202.678C670.955 202.678 670.402 202.46 669.938 202.023C669.483 201.587 669.256 201.063 669.256 200.45C669.256 199.837 669.483 199.313 669.938 198.877C670.402 198.44 670.955 198.222 671.595 198.222C672.236 198.222 672.783 198.44 673.238 198.877C673.702 199.313 673.934 199.837 673.934 200.45C673.934 201.063 673.702 201.587 673.238 202.023C672.783 202.46 672.236 202.678 671.595 202.678ZM694.378 211.032L691.426 211.867C691.24 211.375 690.966 210.897 690.604 210.433C690.252 209.96 689.769 209.57 689.156 209.264C688.544 208.957 687.759 208.804 686.803 208.804C685.494 208.804 684.404 209.106 683.531 209.709C682.668 210.303 682.236 211.06 682.236 211.979C682.236 212.796 682.533 213.441 683.127 213.914C683.721 214.388 684.65 214.782 685.912 215.098L689.087 215.877C690.999 216.342 692.424 217.052 693.361 218.008C694.299 218.955 694.768 220.175 694.768 221.67C694.768 222.895 694.415 223.99 693.709 224.956C693.013 225.921 692.039 226.682 690.785 227.239C689.532 227.796 688.075 228.075 686.413 228.075C684.232 228.075 682.427 227.601 680.997 226.654C679.568 225.708 678.662 224.325 678.282 222.505L681.401 221.725C681.698 222.876 682.259 223.74 683.086 224.315C683.921 224.891 685.012 225.179 686.358 225.179C687.889 225.179 689.105 224.854 690.006 224.204C690.915 223.545 691.37 222.756 691.37 221.837C691.37 221.094 691.11 220.472 690.59 219.971C690.071 219.461 689.272 219.08 688.196 218.829L684.631 217.994C682.673 217.53 681.234 216.81 680.315 215.836C679.405 214.852 678.95 213.622 678.95 212.146C678.95 210.939 679.289 209.872 679.967 208.943C680.654 208.015 681.586 207.287 682.765 206.757C683.954 206.228 685.299 205.964 686.803 205.964C688.92 205.964 690.581 206.428 691.788 207.356C693.004 208.284 693.867 209.51 694.378 211.032ZM699.714 227.629V206.242H703V227.629H699.714ZM701.385 202.678C700.744 202.678 700.192 202.46 699.728 202.023C699.273 201.587 699.046 201.063 699.046 200.45C699.046 199.837 699.273 199.313 699.728 198.877C700.192 198.44 700.744 198.222 701.385 198.222C702.025 198.222 702.573 198.44 703.028 198.877C703.492 199.313 703.724 199.837 703.724 200.45C703.724 201.063 703.492 201.587 703.028 202.023C702.573 202.46 702.025 202.678 701.385 202.678ZM717.707 228.075C715.776 228.075 714.082 227.615 712.625 226.696C711.177 225.777 710.044 224.492 709.227 222.839C708.42 221.187 708.016 219.256 708.016 217.047C708.016 214.819 708.42 212.875 709.227 211.213C710.044 209.551 711.177 208.261 712.625 207.342C714.082 206.423 715.776 205.964 717.707 205.964C719.638 205.964 721.327 206.423 722.775 207.342C724.233 208.261 725.365 209.551 726.173 211.213C726.99 212.875 727.398 214.819 727.398 217.047C727.398 219.256 726.99 221.187 726.173 222.839C725.365 224.492 724.233 225.777 722.775 226.696C721.327 227.615 719.638 228.075 717.707 228.075ZM717.707 225.123C719.174 225.123 720.38 224.747 721.327 223.995C722.274 223.243 722.975 222.255 723.43 221.029C723.885 219.804 724.112 218.477 724.112 217.047C724.112 215.618 723.885 214.286 723.43 213.051C722.975 211.816 722.274 210.819 721.327 210.057C720.38 209.296 719.174 208.916 717.707 208.916C716.24 208.916 715.034 209.296 714.087 210.057C713.14 210.819 712.439 211.816 711.984 213.051C711.53 214.286 711.302 215.618 711.302 217.047C711.302 218.477 711.53 219.804 711.984 221.029C712.439 222.255 713.14 223.243 714.087 223.995C715.034 224.747 716.24 225.123 717.707 225.123ZM735.7 214.764V227.629H732.414V206.242H735.589V209.584H735.867C736.368 208.498 737.129 207.625 738.15 206.966C739.172 206.298 740.49 205.964 742.105 205.964C743.553 205.964 744.82 206.261 745.906 206.855C746.992 207.44 747.837 208.331 748.44 209.528C749.043 210.716 749.345 212.22 749.345 214.04V227.629H746.059V214.262C746.059 212.582 745.623 211.273 744.75 210.336C743.878 209.389 742.68 208.916 741.158 208.916C740.109 208.916 739.172 209.143 738.345 209.598C737.529 210.053 736.883 210.716 736.41 211.589C735.937 212.462 735.7 213.52 735.7 214.764ZM767.603 213.872V216.936H755.127V213.872H767.603ZM773.05 199.113L780.402 210.976H780.625L787.977 199.113H792.042L783.075 213.371L792.042 227.629H787.977L780.625 215.989H780.402L773.05 227.629H768.985L778.174 213.371L768.985 199.113H773.05Z" fill="#ADC7FF"/>
</svg>
